/* XPM */
static char *_8062c38e80f45ede10134a6b4933d98qLUUoYz7DAJqGYZ2[] = {
/* columns rows colors chars-per-pixel */
"100 100 18 1 ",
"  c black",
". c #3A0911",
"X c #767676",
"o c #7C7C7C",
"O c #811426",
"+ c #A11B31",
"@ c #848484",
"# c #8B8B8B",
"$ c #8D8D8D",
"% c #939393",
"& c gray58",
"* c #979797",
"= c #9F9F9F",
"- c gray66",
"; c gray67",
": c #AFAFAF",
"> c #B7B7B7",
", c white",
/* pixels */
"&&&&###&&&&&&&@@@@oo@ooo@@o@o-==.........................$$$$#@#@#@####====%***$$###################",
"&&&&###&&&&&&&@@@@@o@o@oooooo===.........................$$$$@#@@##@###===-%***$####################",
"&&&&###&&&&&&&@@@@oooo@@o@@o@===.........................$$$$@@@#@@####====%**%$####################",
"&&&&###&&&&&&&@@@@@@@ooooo@oo===.........................$$$$#@#@#@@###====&**&$####################",
"####oooooooooooooooo@oo@@====...OOOO+++++++++++++++++++++....>>>=======#######$oooXXXXXXXXXXXXXX####",
"####oooooooooooooo@oo@ooo====...OOOO+++++++++++++++++++++....>>>=======#######$oooXXXXXXXXXXXXXX####",
"####ooooooooooooooooo@@oo====...OOOO+++++++++++++++++++++....>>>=======######$#oooXXXXXXXXXXXXXX####",
"&&&&##############@@o$$$%....OOO+++++++++++..............++++...>>>>===@o@o@ooo&&%==================",
"&&&&##############oo@$$%&....OOO+++++++++++..............++++...>>>>-*=oo@@oo@@***--================",
"&&&&##############o@o$$%$....OOO+++++++++++..............++++...>>>>===oooo@ooo***==================",
"&&&&##############oo@%$$&....OOO+++++++++++..............++++...>>>>=-=@@ooo@oo*%%==================",
"&&&&##############@@o....OOOO++++++++++....              ....+++....-;-oo@@oo@@*&%==================",
"&&&&##############ooo....OOOO++++++++++....              ....+++....;;>ooo@o@oo&&*==================",
"&&&&##############o@o....OOOO++++++++++....              ....+++....;--o@oo@o@@&**==================",
"&&&&##############$$&....OOOO+++++++...                      ...++++...@@oo@oo@***-=================",
"&&&&##############%%$....OOOO+++++++...                      ...++++...oo@oo@oo***-=================",
"&&&&##############$$%....OOOO+++++++...                      ...++++...ooo@o@oo**&==================",
"&&&&##############%$$....OOOO+++++++...                      ...++++...@@oo@oo@&*&==================",
"&&&&##############...OOOOOOOO+++++++...                      ...++++...o@oo@o@@***==================",
"&&&&##############...OOOOOOOO+++++++...                      ...++++...@o@oo@oo***==================",
"%%%%#$$$##########...OOOOOOOO+++++++...                      ...++++...oo@oo@oo&*&-*================",
"====&&%$##########...OOOOOOOOOOO++++...    ,,,           ,,,,...++++...######$##$$$$################",
"==*=**&$##########...OOOOOOOOOOO++++...    ,,,           ,,,,...++++...###########$#################",
"==--**&$##########...OOOOOOOOOOO++++...    ,,,           ,,,,...++++...#############################",
"====%&*$##########...OOOOOOOOOOO++++...    ,,,           ,,,,...++++...#################$###########",
"######$$##########...OOOO....OOO++++...    ,,,           ,,,,...++++...===========&&&&&&&&&&&&&&####",
"##################...OOOO....OOO++++...    ,,,           ,,,,...++++...===========%&&&&&&&&&&&&&####",
"#######$#######$##...OOOO....OOO++++...    ,,,           ,,,,...++++...===========%&&&&&&&&&&&&&####",
"######$$##$$$$$$##...OOOO....OOO++++...    ,,,           ,,,,...++++...===========&&&&&&&&&&&&&&####",
"%%&&##$*&%**&%**&%...OOOO....OOO++++...                      ...OOOO...====&&&&###oooooooooooooooooo",
"&&&&###&**********...OOOO....OOO++++...                      ...OOOO...====&&&&###oooooooooooooooooo",
"&&&&###&**********...OOOO....OOO++++...                      ...OOOO...====&&&&###oooooooooooooooooo",
"####oo@ooo@ooo@o@o;;>........OOOOOOO+++....                  ...OOOO...o@@oo@o@@ooo@oo@oo@oo@ooo####",
"####@@oo@@oo@@oooo>>;........OOOOOOO+++....                  ...OOOO...@ooo@ooooo@o@o@@oo@@o@o@o####",
"##$#ooo@ooo@ooo@@o;;>........OOOOOOO+++....                  ...OOOO...o@o@oo@@o@@oooooooooooo@@####",
"##$$o@o@o@o@o@o@@o>;;........OOOOOOO+++....                  ...OOOO...ooo@oo@ooooo@@@o@@o@@@ooo####",
"####o@oo@@ooo@oooo@oo********...OOOOOOOOOOO...           ....OOO....---@@@@@ooo@@ooooo@oo@ooooo@####",
"####o@o@ooo@o@o@o@@o@&******&...OOOOOOOOOOO...           ....OOO....---@@@@oo@o@oo@@o@@oo@@o@@oo####",
"####@ooo@o@o@ooooooo@&******&...OOOOOOOOOOO...           ....OOO....---@#@@@@@oo@o@oooooooooo@o@####",
"####oo@@oo@ooo@@@@o@oo@o@oo@o===.......OOOOOOO...........OOOO...----#$####$oooo@@ooo@@o@@o@@ooo@####",
"####oo@ooo@oo@@oooo@oo@o@ooo@===.......OOOOOOO...........OOOO...----#######o@oo@oo@o@ooo@oo@o@oo####",
"####@oo@@oo@ooooo@o@o@@oo@@oo===.......OOOOOOO...........OOOO...----#######@oo@oo@@oo@@oo@ooo@@o####",
"####@oo@@oo@@@o@@@oooooooooo@===.......OOOOOOO...........OOOO...----######$oo@@ooooooo@o@o@ooo@o####",
"=======%****&*&*%%o@@@o@o=-==...OOOOOOOOOOO++++++++++++++++++OOO....%%%###$**&**&&=-====*-&-========",
"=======&*******&&%oooo@o@*-=-...OOOOOOOOOOO++++++++++++++++++OOO....%%%####&******======-*==========",
"======-&&%*****&*%@@o@@oo-*=&...OOOOOOOOOOO++++++++++++++++++OOO....%%%###$&*&****==================",
"####&&&@####$$##$$@oooooo....OOO++++++++++++++++++++++++++++++++OOOO...###$ooooo@o$#################",
"####&&&$#####$###$oo@@o@@....OOO++++++++++++++++++++++++++++++++OOOO...##$$@@o@@o@$#################",
"####&&&###########o@ooo@o....OOO++++++++++++++++++++++++++++++++OOOO...####oo@oo@o##################",
"####&&&###########@oo@@oo....OOO++++++++++++++++++++++++++++++++OOOO...####@o@@ooo##################",
"####&&%$##########@oo@oo@....OOO++++++++++++++++++++++++++++++++OOOO...####ooooo@o##################",
"####&&%$##########oo@oo@o....OOO++++++++++++++++++++++++++++++++OOOO...####@@o@@@o##################",
"####&&&$##$$####$#o@@oo@o....OOO++++++++++++++++++++++++++++++++OOOO...####o@ooooo##################",
"####&&&$##$$####$$@oo@oo@....OOO++++++++++++++++++++++++++++++++OOOO...####o@o@oo@##################",
"&&&&&&&&%&****&&**@oo%&$$....+++++++++++++++++++++++++++++++++++++++...========oooXXXXXXXXXXXXXX####",
"&&&&&&&&********&&o@o$$$$....+++++++++++++++++++++++++++++++++++++++...========oooXXXXXXXXXXXXXX####",
"&&&&&%&%**%&*&**&&@oo&$&$....+++++++++++++++++++++++++++++++++++++++...========ooooXXoXXooXoXXoo####",
"#####$$#$$##$$$$##o@o....OOOO+++++++++++++++++++++++++++++++++++++++...###########**&&&&**%%&%**====",
"########$#####$###@o@....OOOO+++++++++++++++++++++++++++++++++++++++...###########%*********&***====",
"##################ooo....OOOO+++++++++++++++++++++++++++++++++++++++...###########&*************====",
"##################o@@....OOOO+++++++++++++++++++++++++++++++++++++++...#########$$**************====",
"##################@oo....OOOO+++++++++++++++++++++OOOO++++++++++++++OOO##########$**************====",
"##################o@o....OOOO+++++++++++++++++++++OOOO++++++++++++++OOO###########**************====",
"#################$oo@....OOOO+++++++++++++++++++++OOOO++++++++++++++OOO###########************&%====",
"##################o@o....OOOO+++++++++++++++++++++OOOO++++++++++++++OOO###########%&************====",
"##################@oo....OOOO+++++++++++++++++++++OOOO++++++++++++++OOO###########**************====",
"##################oo@....OOOO+++++++++++++++++++++OOOO++++++++++++++OOO#########$$*****&********====",
"##################o@o....OOOO+++++++++++++++++++++OOOO++++++++++++++OOO##########$*****%********====",
"====&**-==========$%$....OOOO+++++++++++++++++OOOO....OOO+++++++OOOOOOOXXXXXXXX#############$#######",
"====&*%-=======-==$%$....OOOO+++++++++++++++++OOOO....OOO+++++++OOOOOOOXXXXXXXX###$$##$$###$$$###$##",
"====&%%=-&&-==-&==$$%....OOOO+++++++++++++++++OOOO....OOO+++++++OOOOOOOXXXXXXXo##$$$#$$$##$$$$##$$$$",
"###$$$#oo@oo@oo@o@...OOOOOOOOOOO++++OOO++++OOOOOOO....OOOOOOO+++OOOOOOO#######$*%&&*%&&*&%**&*&%**&*",
"#######@oo@o@ooooo...OOOOOOOOOOO++++OOO++++OOOOOOO....OOOOOOO+++OOOOOOO$$######&********************",
"#######oo@@oo@@o@@...OOOOOOOOOOO++++OOO++++OOOOOOO....OOOOOOO+++OOOOOOO$#######&********************",
"####$#$oo@oooo@oo@...OOOOOOOOOOO++++OOO++++OOOOOOO....OOOOOOO+++OOOOOOO$$$#####%**%&**%&*&*&&%**&&&&",
"XXXXXXXooooooooooo...OOOOOOOOOOOOOOO+++OOOOOOO....    ...OOOOOOOOOOOOOO*&&%#####$$$$$$##$$$$$$$$##$#",
"XXXXXXXooooooooooo...OOOOOOOOOOOOOOO+++OOOOOOO....    ...OOOOOOOOOOOOOO****$$###$###########$#######",
"XXXXXXXooooooooooo...OOOOOOOOOOOOOOO+++OOOOOOO....    ...OOOOOOOOOOOOOO&**&$################$#######",
"XXXXXXXooooooooooo...OOOOOOOOOOOOOOO+++OOOOOOO....    ...OOOOOOOOOOOOOO&*&*$#####$#####$#####$######",
"########$#########...OOOO....OOOOOOOOOOOOOO...        ...OOOOOOO....OOO#$$$oo@o@oo@oo@oo@oo@oo@o####",
"##################...OOOO....OOOOOOOOOOOOOO...        ...OOOOOOO....OOO####o@ooo@@o@o@oo@ooo@@o@####",
"##################...OOOO....OOOOOOOOOOOOOO...        ...OOOOOOO....OOO####@oo@@ooooo@@o@o@ooooo####",
"#################$;>>........OOO....OOOOOOO...           ....OOOOOOO...####o@o@oo@@ooooooo@@o@@o####",
"#################$;;;........OOO....OOOOOOO...           ....OOOOOOO...####o@ooooo@o@o@@@ooooo@o####",
"##################;;>........OOO....OOOOOOO...           ....OOOOOOO...####o@o@@@ooo@oooooo@@@o@####",
"##################>;;........OOO....OOOOOOO...           ....OOOOOOO...####@oooo@o@o@o@o@@oooooo####",
"##################ooo>;;;.......>;;;..........===-****   ...........>;;####oo@@ooo@@oo@@o@o@o@@o####",
"##################o@@;;>;.......;;>>..........===-**&&   ...........;;>##$#oo@oo@ooo@oooooo@oo@o####",
"#################$o@o;;>>.......;>;;..........--==%&&&   ...........>>-$###@ooo@@oo@@oo@@ooo@@o@####",
"#################$oo@oooo====%&&#@@#       *%%oooo@#$@>>;    -==@oooooo####oo@o@o@ooo@oo@o@ooooo####",
"##################o@o@@o@===-***#@#@       *&&@oo@@@@@;;;    ===oo@@ooo$###o@@ooo@@oo@@ooo@@o@@o####",
"##################o@ooo@o===****@#@@       ***oo@o@##@;>>    ===o@oo@@o$###@ooo@ooo@ooo@@ooooo@o####",
"#####$$$##########o@o@ooo==--&**$@@#       *&&@@o@@$@$;>>    -*-o@oooo@####o@oo@@oo@o@oooo@o@oo@####",
"====&&%-==========@oo##@@@o@ooo@o@@o***    @@o&*&*&*&*@oo    *&*-&-=@ooXXXXoooooo@=-==-&-===========",
"==-=**%-==========oo@@@##ooo@oo@oo@o***    o@o******&&ooo    &***-==o@ooXXXooooo@o====*-&-==========",
"==*-**&&==========o@o@#@@@@oo@oo@oo@**&    @o@*******%o@@    **&=*==@ooXXXXoooo@oo=====*-*==========",
"====***-*=========@#@oo@oo@ooo@@oo@o#@#    #@@#@@#@@#@#@#    @#@oo@o#@#XXXXoooooo@==================",
"====***-==========#@@@o@@o@o@ooo@o@o@#@    @#@@##@#@@#@@@    @@#@oo@@#@XXXXoooo@@o==================",
"====**%===========@@#@ooooo@o@o@ooo@@@@    #@##@#@#@##@##    #@#@oo@@@@XXXXooooo@o==================",
"====*&&===========#@@o@o@@ooo@oo@@oo#@#    @#@#@@#@@@@#@@    @#@o@oo#@#XXXXoooo@oo=================="
};
