/* XPM */
static char *e8eef978149b4dbea56fbc749c90c082H9JEiqbKXcEWQlec[] = {
/* columns rows colors chars-per-pixel */
"100 100 15 1 ",
"  c black",
". c #767676",
"X c #7C7C7C",
"o c #A81000",
"O c #AC7C00",
"+ c #F87858",
"@ c #F8B800",
"# c #F8D878",
"$ c #D8F878",
"% c gray51",
"& c #8B8B8B",
"* c gray58",
"= c #979797",
"- c #9F9F9F",
"; c #FCE0A8",
/* pixels */
"****&&&******************-------*=============&&&&&&&&---------------------====&&&&&&&&&&&&&&&&&&&&&",
"****&&&******************-------==============&&&&&&&&---------------------====&&&&&&&&&&&&&&&&&&&&&",
"****&&&******************-------==============&&&&&&&&---------------------====&&&&&&&&&&&&&&&&&&&&&",
"****&&&******************-------==============&&&&&&&&---------------------====&&&&&&&&&&&&&&&&&&&&&",
"&&&&XXXXXXXXXXXXXXXXXXXXX%X%X%X%&&&&&&&&&&&&&&&&&&&&&&&&&==============&&&&&&&&XXX..............&&&&",
"&&&&XXXXXXXXXXXXXXXXXXXXXX%X%X%X&&&&&&&&&&&&&&&&&&&&&&&&&==============&&&&&&&&XXX..............&&&&",
"&&&&XXXXXXXXXXXXXXXXXXXXX%X%X%X%&&&&&&&&&&&&&&&&&&&&&&&&&=============*&&&&&&&&XXX..............&&&&",
"****&&&&&&&&&&&&&&&&&&&&&&&&&&&&X%X%X%X%X%X%X%X%%X%X%X&&&&&&&&&&&&&&&&&%%X%X%X%*==------------------",
"****&&&&&&&&&&&&&&&&&&&&&&&&&&&&%X%X%X%X%X%X%X%X%X%X%X&&&&&&&&&&&&&&&&&X%X%X%X%===------------------",
"****&&&&&&&&&&&&&&&&&&&&&&&&&&&&X%X%X%X%X%X%X%X%X%X%X%&&&&&&&&&&&&&&&&&%X%X%X%X===------------------",
"****&&&&&&&&&&&&&&&&&&&&&&&&&&&&%X%X%X%X%X%X%X%X%X%X%X&&&&&&&&&&&&&&&&&X%X%X%XX===------------------",
"****&&&&&&&&&&&&&&&&&&&&&&&&&&&&X%X%X%X%X%X%X%X%X%X%X%&&&&&&&&&&&&&&&&&%X%X%X%%===------------------",
"****&&&&&&&&&&&&&&&&&&&&&&&&&&&&%X%X%X%X%X%X%X%X%X%X%X&&&&&&&&&&&&&&&&&X%X%XX%X===------------------",
"****&&&&&&&&&&&&&&&&&&&&&&&&&&&&X%X%X%X%X%X%X%X%X%X%X%&&&&&&&&&&&&&&&&&%X%X%%X%*==------------------",
"****&&&&&&&%%%----                                                                ----&%&-----------",
"****&&&&&&&%%%----                                                                ----%&&-----------",
"****&&&&&&&%%%----                                                                ----&%&-----------",
"****&&&&&&&%%%----                                                                ----&&%-----------",
"****&&&&&&&&&&    ;;;++++++++++++++++++++++++++++++++++++++++++++++++++++++++++;;;    --------------",
"****&&&&&&&&&&    ;;;++++++++++++++++++++++++++++++++++++++++++++++++++++++++++;;;    --------------",
"****&&&&&&&&&&    ;;;++++++++++++++++++++++++++++++++++++++++++++++++++++++++++;;;    --------------",
"----**=&&&&&&&    ;;;++++++++++++++++++++++++++++++++++++++++++++++++++++++++++;;;    &&&&&&&&&&&&&&",
"----===&&&&&&&    ;;;++++++++++++++++++++++++++++++++++++++++++++++++++++++++++;;;    &&&&&&&&&&&&&&",
"----===&&&&&&&    ;;;++++++++++++++++++++++++++++++++++++++++++++++++++++++++++;;;    &&&&&&&&&&&&&&",
"----===&&&&&&&    ;;;++++++++++++++++++++++++++++++++++++++++++++++++++++++++++;;;    &&&&&&&&&&&&&&",
"&&&&&&&&&&&&&&    $$$oooooooooooooooooooooooooooooooooooooooooooooooooooooooooo$$$    **********&&&&",
"&&&&&&&&&&&&&&    $$$oooooooooooooooooooooooooooooooooooooooooooooooooooooooooo$$$    **********&&&&",
"&&&&&&&&&&&&&&    $$$oooooooooooooooooooooooooooooooooooooooooooooooooooooooooo$$$    **********&&&&",
"&&&&&&&&&&&&&&    $$$oooooooooooooooooooooooooooooooooooooooooooooooooooooooooo$$$    **********&&&&",
"****&&&=======    $$$oooooooooooooooooooooooooooooooooooooooooooooooooooooooooo$$$    XXXXXXXXXXX.XX",
"****&&&=======    $$$oooooooooooooooooooooooooooooooooooooooooooooooooooooooooo$$$    XXXXXXXXXXXXXX",
"****&&&=======    $$$oooooooooooooooooooooooooooooooooooooooooooooooooooooooooo$$$    XXXXXXXXXXXXXX",
"&&&&X%X%X%X%X%    $$$oooooooooooooooooooooooooooooooooooooooooooooooooooooooooo$$$    %X%X%X%X%X&&&&",
"&&&&%X%X%X%X%X    $$$oooooooooooooooooooooooooooooooooooooooooooooooooooooooooo$$$    X%X%X%X%X%&&&&",
"&&&&X%X%X%X%X%    $$$oooooooooooooooooooooooooooooooooooooooooooooooooooooooooo$$$    %X%X%X%X%X&&&&",
"&&&&%X%X%X%X%X    $$$oooooooooooooooooooooooooooooooooooooooooooooooooooooooooo$$$    X%X%X%X%X%&&&&",
"&&&&X%X%X%X%X%    $$$oooooooooooooooooooooooooooooooooooooooooooooooooooooooooo$$$    %X%X%X%X%X&&&&",
"&&&&%X%X%X%X%X    $$$oooooooooooooooooooooooooooooooooooooooooooooooooooooooooo$$$    X%X%X%X%X%&&&&",
"&&&&X%X%X%X%X%    $$$oooooooooooooooooooooooooooooooooooooooooooooooooooooooooo$$$    %X%X%X%X%X&&&&",
"&&&&%X%X%X%X%X    $$$oooooooooooooooooooooooooooooooooooooooooooooooooooooooooo$$$    X%X%X%X%X%&&&&",
"&&&&X%X%%X%X%X    $$$oooooooooooooooooooooooooooooooooooooooooooooooooooooooooo$$$    %X%X%X%X%X&&&&",
"&&&&%X%XX%X%X%    $$$oooooooooooooooooooooooooooooooooooooooooooooooooooooooooo$$$    X%X%X%X%X%&&&&",
"&&&&X%X%%XX%%%    $$$oooooooooooooooooooooooooooooooooooooooooooooooooooooooooo$$$    X%X%%X%XX%&&&&",
"-------*====*=    @@@@@@@@@@@@@@@@@@@@@@@@@@@@@@@@@@@@@@@@@@@@@@@@@@@@@@@@@@@@@@@@    --------------",
"-------=======    @@@@@@@@@@@@@@@@@@@@@@@@@@@@@@@@@@@@@@@@@@@@@@@@@@@@@@@@@@@@@@@@    --------------",
"-------=======    @@@@@@@@@@@@@@@@@@@@@@@@@@@@@@@@@@@@@@@@@@@@@@@@@@@@@@@@@@@@@@@@    --------------",
"&&&&***&&&&&&&    #########################;;;####################################    &&&&&&&&&&&&&&",
"&&&&***&&&&&&&    #########################;;;####################################    &&&&&&&&&&&&&&",
"&&&&***&&&&&&&    #########################;;;####################################    &&&&&&&&&&&&&&",
"&&&&***&&&&&&&    #########################;;;####################################    &&&&&&&&&&&&&&",
"&&&&***&&&&&&&    ###oooooooooooooooooooooo###        ###oooooooooooooooooooooo###    &&&&&&&&&&&&&&",
"&&&&***&&&&&&&    ###oooooooooooooooooooooo###        ###oooooooooooooooooooooo###    &&&&&&&&&&&&&&",
"&&&&***&&&&&&&    ###oooooooooooooooooooooo###        ###oooooooooooooooooooooo###    &&&&&&&&&&&&&&",
"&&&&***&&&&&&&    ###oooooooooooooooooooooo###        ###oooooooooooooooooooooo###    &&&&&&&&&&&&&&",
"*******=======    OOO####oooooooooooooooooooooooooooooooooooooooooooooooooo####OOO    ..........&&&&",
"*******=======    OOO####oooooooooooooooooooooooooooooooooooooooooooooooooo####OOO    ..........&&&&",
"*******=======    OOO####oooooooooooooooooooooooooooooooooooooooooooooooooo####OOO    ..........&&&&",
"&&&&&&&&&&&&&&    ###ooooooooooooooooooooooooo########ooooooooooooooooooooooooo###    ==========----",
"&&&&&&&&&&&&&&    ###ooooooooooooooooooooooooo########ooooooooooooooooooooooooo###    ==========----",
"&&&&&&&&&&&&&&    ###ooooooooooooooooooooooooo########ooooooooooooooooooooooooo###    ==========----",
"&&&&&&&&&&&&&&    ###ooooooooooooooooooooooooo########ooooooooooooooooooooooooo###    ==========----",
"&&&&&&&&&&&&&&    ###ooooooooooooooooooooooooo########ooooooooooooooooooooooooo###    ==========----",
"&&&&&&&&&&&&&&    ###ooooooooooooooooooooooooo########ooooooooooooooooooooooooo###    ==========----",
"&&&&&&&&&&&&&&    ###ooooooooooooooooooooooooo########ooooooooooooooooooooooooo###    ==========----",
"&&&&&&&&&&&&&&    ###ooooooooooooooooooooooooo########ooooooooooooooooooooooooo###    ==========----",
"&&&&&&&&&&&&&&    ###ooooooooooooooooooooooooo########ooooooooooooooooooooooooo###    ==========----",
"&&&&&&&&&&&&&&    ###ooooooooooooooooooooooooo########ooooooooooooooooooooooooo###    ==========----",
"&&&&&&&&&&&&&&    ###ooooooooooooooooooooooooo########ooooooooooooooooooooooooo###    ==========----",
"----===-------    ###ooooooooooooooooooooooooo########ooooooooooooooooooooooooo###    &&&&&&&&&&&&&&",
"----===-------    ###ooooooooooooooooooooooooo########ooooooooooooooooooooooooo###    &&&&&&&&&&&&&&",
"----=*=-------    ###ooooooooooooooooooooooooo########ooooooooooooooooooooooooo###    &&&&&&&&&&&&&&",
"&&&&&&&%%X%X%X    ############################OOOOOOOO############################    ==============",
"&&&&&&&%X%X%X%    ############################OOOOOOOO############################    ==============",
"&&&&&&&X%X%X%X    ############################OOOOOOOO############################    ==============",
"&&&&&&&%%XX%X%    ############################OOOOOOOO############################    ==============",
".......XXXXXXX                                                                        &&&&&&&&&&&&&&",
".......XXXXXXX                                                                        &&&&&&&&&&&&&&",
".......XXXXXXX                                                                        &&&&&&&&&&&&&&",
".......XXXXXXX                                                                        &&&&&&&&&&&&&&",
"&&&&&&&&&&&&&&&&&&&&&&&&&X%X%X%X%X%X%X%X%X%X%X%XX%X%X%&&&&&&&&&&&&&&&&&&&&&X%X%XX%X%X%X%X%X%X%X%&&&&",
"&&&&&&&&&&&&&&&&&&&&&&&&&%%X%X%XX%X%X%X%X%X%X%X%%X%X%X&&&&&&&&&&&&&&&&&&&&&X%X%X%X%X%X%X%X%X%X%X&&&&",
"&&&&&&&&&&&&&&&&&&&&&&&&&XX%X%X%%X%X%X%X%X%X%X%XX%X%X%&&&&&&&&&&&&&&&&&&&&&%X%X%X%X%X%X%X%X%X%X%&&&&",
"&&&&&&&&&&&&&&&&&&&&&&&&&X%X%X%XX%X%X%X%X%X%X%X%%X%X%X&&&&&&&&&&&&&&&&&&&&&X%X%X%X%X%X%X%X%X%X%X&&&&",
"&&&&&&&&&&&&&&&&&&&&&&&&&%X%X%X%%X%X%X%X%X%X%X%XX%X%X%&&&&&&&&&&&&&&&&&&&&&%X%X%X%X%X%X%X%X%X%X%&&&&",
"&&&&&&&&&&&&&&&&&&&&&&&&&X%X%X%XX%X%X%X%X%X%X%X%%X%X%X&&&&&&&&&&&&&&&&&&&&&%%X%X%X%X%X%X%X%X%X%X&&&&",
"&&&&&&&&&&&&&&&&&&&&&&&&&%X%X%X%%X%X%X%X%X%X%X%XX%X%X%&&&&&&&&&&&&&&&&&&&&&XX%X%X%X%X%X%X%X%X%X%&&&&",
"&&&&&&&&&&&&&&&&&&&&&&&&&%%X%X%XX%X%X%X%X%X%X%X%%X%X%X&&&&&&&&&&&&&&&&&&&&&%%X%X%X%X%X%X%X%X%X%X&&&&",
"&&&&&&&&&&&&&&&&&&&&&&&&&XX%X%X%%X%X%X%X%X%X%X%XX%X%X%&&&&&&&&&&&&&&&&&&&&&XX%X%X%X%X%X%X%X%X%X%&&&&",
"&&&&&&&&&&&&&&&&&&&&&&&&&%%X%X%XX%X%X%X%X%X%X%X%%X%X%X&&&&&&&&&&&&&&&&&&&&&X%X%X%X%X%X%X%X%X%X%X&&&&",
"&&&&&&&&&&&&&&&&&&&&&&&&&XX%X%X%%X%X%X%X%X%X%X%XX%X%X%&&&&&&&&&&&&&&&&&&&&&%X%X%X%X%X%X%X%X%X%X%&&&&",
"&&&&&&&&&&&&&&&&&&&&&&&&&X%X%X%XX%X%X%X%X%X%X%X%%X%X%X&&&&&&&&&&&&&&&&&&&&&X%X%X%X%X%X%X%X%X%X%X&&&&",
"&&&&&&&&&&&&&&&&&&&&&&&&&%X%X%X%%X%X%X%X%X%X%X%XX%X%X%&&&&&&&&&&&&&&&&&&&&&%X%X%X%X%X%X%X%X%X%X%&&&&",
"&&&&&&&&&&&&&&&&&&&&&&&&&%X%%X%XX%X%X%X%X%X%%X%%X%X%%X&&&&&&&&&&&&&&&&&&&&&X%X%X%X%X%X%XX%X%%X%X&&&&",
"----*==--------------&&&&&&&&&&&%X%X%X%X%X%XX%*===-------XXXXXXXXXXXXXX....XXXX%X%------------------",
"----===--------------&&&&&&&&&&&X%X%X%X%X%X%%X====-------XXXXXXXXXXXXXX....XXXXX%X------------------",
"----===--------------&&&&&&&&&&&%X%X%X%X%X%XX%====-------XXXXXXXXXXXXXX....XXXX%X%------------------",
"----===--------------&&&&&&&&&&&%X%X%X%X%X%X%X====-------XXXXXXXXXXXXXX....XXXX%%X------------------",
"----===--------------&&&&&&&&&&&X%X%X%X%X%X%X%====-------XXXXXXXXXXXXXX....XXXXXX%------------------",
"----===--------------&&&&&&&&&&&%X%X%X%X%X%X%X====-------XXXXXXXXXXXXXX....XXXX%%X------------------",
"----===--------------&&&&&&&&&&&X%X%X%X%X%X%X%====-------XXXXXXXXXXXXXX....XXXXXX%------------------"
};
