/* XPM */
static char *_87ae9a0246040ddb070de7188398ee52vfDES9vGKoaoNcP[] = {
/* columns rows colors chars-per-pixel */
"28 28 17 1 ",
"  c #1B141E",
". c #767676",
"X c #7C7C7C",
"o c #EB8A06",
"O c #FFC95C",
"+ c #808080",
"@ c #818181",
"# c #838383",
"$ c gray52",
"% c gray53",
"& c #8B8B8B",
"* c gray56",
"= c gray58",
"- c #979797",
"; c #9F9F9F",
": c #AFAFAF",
"> c #FDF5F1",
/* pixels */
"=&=====;;==--&&:;;;;;-&&&&&&",
"&XXXXXX@@&&&&&$$----&&.....&",
"=&&&&&&&&@@X@@X&&&&&++=-;;;;",
"=&&&&&&&&XX@XX@&&&&&X@-:;;;;",
"=&&&&&&@XXX@@X@&&&&@X+-;;;;;",
"=&&&&&$X@.:      ;++@#-;;;;;",
";=&&&@@X:  >>>>>>  ;+X&&&&&&",
"&&&&$XX= >>>>>>>>>> %#;====&",
"=&---=@ >>>oooooo>>> X&XXXXX",
"&X+@@@* >OoOOOOOOoO> *@X+@X&",
"&@+X+X OOoOOOOOOOOoOO ++X@+&",
"&+@X+@ OOoOOOOOOOOoOO X@X++&",
";;=-=- OOoOOOOOOOOoOO *::;;;",
"&=&&&& OOoOOOOOOOOoOO X&#%&&",
"&=&&&& OOoOOOOOOOOoOO @&&&&&",
"==--=& oOOOOOOOOOOOOo .....&",
"&&&&&&: oo>OOOOOO>oo :&----;",
"&&&&&&X ooo>>>>>>ooo +&----;",
"&%&&&&+: oooooooooo -X&-=-*:",
":*;;;;+%=  oooooo  -&+@@&&%&",
"&&+@X@+X++;      ;X+&+X-=---",
"..XXXX-$;$X&;;&&;-:$X+&&&&&&",
"&&&&&&&+@+X+X@+&%&@+@X@+@+X&",
"&&&&&&&XX+@@X+@&&&&+&+@XX++%",
"&&&&&&&+++X@X@+&&&&&&+XX@@+&",
"&&&&&&&XX@X++@X&&&&&&@@++XX&",
":-;;;;&&&X@++=;-XX.X.XX-;;:-",
"-=;;;;&%&+@XX=;:XXXX.XX:;;;;"
};
