/* XPM */
static char *f01e6e04a93647a6c9dc33b2f212e75bP6icXy2OrrfLkYey[] = {
/* columns rows colors chars-per-pixel */
"28 28 7 1 ",
"  c #767676",
". c #7C7C7C",
"X c #8B8B8B",
"o c gray55",
"O c gray58",
"+ c #979797",
"@ c #9F9F9F",
/* pixels */
"OXOOOOO@@OOOOXX@@@@@@+oooXXX",
"X.......ooXXooXXOO++oo.    X",
"OXXXXXXXo......oXXXXo.O@@@@@",
"OXXXXXXXo..X..XoXXXX..+@@@@@",
"OXXXXXoXX.X.X..oXXXX..O@@@@@",
"OXXXXXooX......XXXXX.XO@@@@@",
"@OoXXX@@@XXXX@@@XXXXXXXXXXXX",
"XXooXXXOXXXXX. XXXXX@@@OOOOX",
"OX+++OOOO@@@@@oo@@@@@OX ....",
"X.o.o..XooXXX..oXXXXX.X....X",
"X.....oooXXXX.XXXXXX..X.X..X",
"X..o...oXXXXX..XXXXX......oo",
"@@OOO+. .XXXXX@@OOOOXOO@@@@@",
"XOooooooXOOOOXXOOOOOX.XoXXXX",
"oOooooXXXOOOOXXOOOOOX..oXXXX",
"OO+OOO@@O@@@@@@oOOOO@@.    X",
"ooXXXXOXXOOOO@XXXXXXXXXO+++@",
"ooXXXXOXXOOOO@ooXXXXXXoO+++@",
"XoooXXOXXOOOO@XoXXXXooo+O++@",
"@O@@@@XXOOOOO@@O....  oooooo",
"XX...X..@oXXXX..o.X.XoO+O++O",
" .. ..O@@@@@@@XX+@O@Oooooooo",
"XXXXXXX.......XXooXXo..o...X",
"XXXXXXXX..X..X.XXXooo.....Xo",
"XXXXXXXX..X.o..XXXXXX.X....X",
"XXXXXXX........oXXXXX...X..X",
"@O@@@@ooo..X.O@@.... ..@@@@@",
"@O@@@@Xoo...oO@@....  X@@@@@"
};
