/* XPM */
static char *_19f6896498740f7d8730b76768086ddrcp1UucvBKYoXymh[] = {
/* columns rows colors chars-per-pixel */
"100 100 62 1 ",
"  c #124C85",
". c #124C86",
"X c #124D88",
"o c #124E88",
"O c #124E89",
"+ c #124F89",
"@ c #124F8A",
"# c #124F8B",
"$ c #12508B",
"% c #11508C",
"& c #11518C",
"* c #11518D",
"= c #13558E",
"- c #135890",
"; c #0C69A6",
": c #0B6DAA",
"> c #0C6DAB",
", c #0B6DAC",
"< c #0B6EAD",
"1 c #0B6FAE",
"2 c #126CA8",
"3 c #136FA9",
"4 c #106FAB",
"5 c #0B70AF",
"6 c #0C70AE",
"7 c #0C71AF",
"8 c #1574AB",
"9 c #0A71B0",
"0 c #0A71B1",
"q c #0A72B1",
"w c #0A73B2",
"e c #0C73B0",
"r c #0D75B1",
"t c #0C75B2",
"y c #0D76B2",
"u c #0E79B4",
"i c #1674B1",
"p c #1675B1",
"a c #0291D3",
"s c #0195D7",
"d c #0197D8",
"f c #0197D9",
"g c #0398D8",
"h c #0098DA",
"j c #019ADB",
"k c #029BDB",
"l c #019CDC",
"z c #29DBED",
"x c #29DCED",
"c c #29DFEF",
"v c #29DFF1",
"b c #2ADFF0",
"n c #2AE0F0",
"m c #2AE0F1",
"M c #2AE2F1",
"N c #2AE2F2",
"B c #2BE3F2",
"V c #2BE4F2",
"C c #2AE4F3",
"Z c #2CE7F4",
"A c #2CE7F5",
"S c #2CE8F5",
/* pixels */
"iiiiiiiiiip;;;;;;;       ....+++++++;:;>,;,XXX#*##*#$$>111111111>>>>>>>#..#.$$$$$$11111155wwwfaaaaaa",
"iiiiiiiipip;;;;;;;       ....+++++++::>;;,;XXX##*#%%$%7111111111>>>>>>>.####$$$$$$1111115www5aaaaaaa",
"iiiiiiiippp;;;;;;;       ....+.%++++;>>;>;>XXX##$$%%##1111111111>>>>>>>#.#.*$$$$$$e1111155ww5aaaaaaa",
"iiiiiiiippp;;;;;;;       ....+%.++++>>;>;>;XXX##$$$%##1111111111>>>>>>>#%.#%$$$$$$5111115wwwwfaaaaaa",
"iiiiiiiiii8;;;;;;;.   .. ......%%.#.;;>;>;>X.###$$$$$$1111111111>>>>>>>X.%o$$$$$##11111155wweaaaaaaa",
"iiiiiiiiiii;;;;;;;.. ... .....######>>;>;>;...##$$$$$$1111111111>>>>>1>#oo#$$$$$*#1111115twweaaaaaaa",
"iiiiiiiiii8;;;;;;;..  .. ....#.##.#.;:>;>;>##.##$o$o$o7111711711>>>>>>1Xooo$$$$$#*5111115eeeesaaaaaa",
"*******1qq77777711>>1>1,>111111::71:7117111::1##o$o$o$##.#.%.%.#.#.##.#Xooo*$*$**#5q55e5efffsoo##X#X",
"****#*#17111111111,1,1,1,1,1>1>11:111111111:,,#.#.##X#X##.oo#ooooo##ooX#%.%%%%%*#*7qq9999dddfooo###X",
"*****#*111111111111,1,1,1,1,111>11:111111111,>X###..#X#X.%o#o#X##oooo##X+%.%%%%#*#q77q999dddfoo#.#.#",
"***%***111111111111,,1,1,1,1>1111:111111111:1>.#.#X#X#XX%ooo#X#X#oo#ooo#.%.%%%**%%7qy77w7gggfooo#.#.",
"=====-=MMMMvvvvvvvsssssss11111111111111111111111111111,,>oooX#oo$o$o####%%%7771177uwuuwuuxxnv#$o####",
"=======MMMMvvvvvvvsssssss11111111111111111111111111111,,>o#XoX#Xo$o$*.%%%%%7111177uuuuuuunxxx%o$####",
"=======MMMMvvvvvvvsssssss11111111111111111111111111111,,>oX#o#oo$o$o%%+%%%.7111177uuuuuurxxxx%$$####",
"=======MMMMvvvvvvvsssssss11111111111111111111111111151>>>#oo#o#Xo$o$%..*%%%7111111wuuuuuuxxxx.%%####",
"=======MMMMvvvvvvvsssssss11111111111111111111111111155,>>#X#XoX#$o$o%%.%%%%7111111ruuuuuunxxx%.*####",
"=======MMMMMvvvvvvsssssss111111111111111111111111111111>>#X#.#.##*##%.%%%%%7111111uuuuuuqzzzz#%.####",
"=======MMMMMvvvvvvsfssssfq11111q111q111q1117111q11111511>.#####..#.%.%#%%%*:771111uuuuuuuzvzz#%.####",
"vzzzzxzwtttettttetet5q55qhjffjjkjjjkMACSVASSMSAMNMMMNN111555q1117777q777177rrrrrrrbbbbbbM11111,9111,",
"zzzzzxxwitteqeetqr55qqwqqhfffjjkjjjkSVSCVAVSVAMVBMMMNM111155171177777777q77wwuwwtrbbbbbbv11111,>:1>1",
"zzzzzzzrttttqrrrttqqqqqq1jjjjkkkkkkkCSCSAAVSVSVMNVBBBB11155511e1777777q7177wuwwuttvvcbbbv11111>91,1,",
"zzzzzzzrtttterqeqtqqqqqqqjfffkkkkkkkSCSCAVVSASMVVNBBBB111555q15577777711q17wrrrrttbbvBbbx7111>9>,1,1",
"zzzzzzzwtittterwwrqqqqqq1jfjfjkkkkkkCSCSASSSVSMSBBBBBB41155555557771771711qwwrrwtrbbvxvvv11111:11,1,",
"zzzzzxxrttteterqqtqqqqqqqjffjkkjkkkkSCSMAVSVASVVBBBBBBe515555555777i77q1711wuwwutrbbvMxMx1111111,1,1",
"zzzzzzzrtiwrqrrwweqqq7q7qffffjjjkkjkSSMAMCCSSSVVMAAAMVqr15ee5ee5qq7w77wr777wrrrrttxMvxMvc111111:1,1,",
"-------1511q1111e111111q1q7q55q777111q779p77q7lljkjlkjSSSVSSVBAVCCMMVMNfsjjdfsjdff111111111111111111",
"-------111111111111111111511555577177777777797kkkkllkkSSVVSVSSVSCCCCAMCjjjfssjddfs711111111111111111",
"-------1111111111111111115555555777777779777w7kkkkllkkSSSSSSSVASCCCCMACfffjddsddff111111111111111111",
"-------1111111111111111115555555191979p1777wrwllklllkkSSSZZZAAAACCCCCANfjjffddddsf111111111111111111",
"-------1111111111111111115555555171177777777rtllllllkkSSSZZZAAZZCCCCCNAjfffsddddff111111111111111111",
"-------111111111111111111555555579197777777qqqllllllkkSSSZZZZZZZCCCCCCMfffjfddddsf111111111111111111",
"-------1111111111111111115555555119177777777q7llllllkkSSSZZZZZZZCCCCCCMfjjffdddsjs111111111111111111",
",1,1,1>fffffsfsffs,1,1>11##$o###%*+$6711111155ffjhhhhhq11111111111111111111>,1,1,1,1,1,111111111111q",
"1,1,1,1ffffsfsfsss1,1>1>1$oo$*##%%%%6>11111e55jffhhhhh111111111111111111>1>11>1,1,1,1,1,11111111111:",
",1,1,11fffffsffffs,1,1111o$#o$###%%+1111111155ffhhhhfh11111111111111111>1>1>>11>,1,1,1,1:11111111115",
"1,1,1,1ffffsfsfffs1,1,111$o#$$###%%%1111111r55fjhhhhff1q1111111111111111>11111111,1,1,1,1111111111i5",
"ccccccc955q5555511o#o$##oo$oX#X#o#oo#%%+o$o$##51q55555hhf55555557171118o#X#.%.ooooo$####.7:1199911qq",
"ccccccc15q5555551e#o#$o$o##o#ooo#ooo#..%$o$o.#55555555hhf5555555171751e#.#%..%oooo$o###.#:1::999qqq1",
"ccccccv990q5555555#o#o#oo#ooXoooooooo$%$.%.###e1555555fhfq555555111e1e>#####%.%oooo$+%###1:11799qqq1",
"ccccccc9900555555e#$#o###o#o#X#X#o$o$o$+##%###1e555555fhfq5555558>1111e#####.%oo#o$o%%.#%:1:179911qq",
"ccMcccc7q5q5555555#.##.%o#ooo#X#Xoo###oo$$#o$#11111q1qjff55555555>e11>1o#o#ooooooo##o$##o>1>:799qqq7",
"ccxMccc75q55555555####$$#o#X#X#o#X#Xo####o#$o#1eqq1117fjfq5155551e1e77eo##*o#ooo#o#o#$o$$1>117999977",
"cvxMnMcq5555555555##ooo$o##oX#XoX#Xoo#o##oo$o$111117q1fffq111q55eeee777oo#o#oooo#o#o#o$o.11>:777977q",
"qwrrrwq1111#######X#$oooX#Xooo#XoX#o#o#X#o#o#$o###.###1q5AAAVMAAVBBMBBZ1eeeo$#$$#o##$o#####.#jjsffff",
"rururure111#######X#o#o#oo#X#o#Xo#X#Xoo#ooo#X#o###.%o$717ZZZSSSSMSMSVVB551eo.%+%o$#o$#o$#%$o$fsjjsff",
"rtrtwrr7111########oooooX#X#XoX##X#o#ooX#ooXoX###%##%.1e7ZZZVSSVSNSMSVBe5eeo%#%.o#$o$o#$##o$#jjssjff",
"turrtrwe111#######Xoooo##X#X#XooX#XoXoo#ooo#o#ooo$.%##e11VZZVSSSNSNSBSVe555#.%##$$####oo.+%o#gfjjsjf",
"rruttrr:111########X#X#XooX#ooX#oo#X#X#X#X#X#X##$o$o##17eZSSSSSVSVVBVBB5e5io###.#oo$o$$#%%o$.jjsjjff",
"trtutite111########o#o#XoX#X#XoX#ooXoXX#oXX#X##oo$o$o#e55VASVVSSSMSAVNVeee5o#X##$+%+%+%%+%###fjfsjdd",
"urrrrrte111######oooo#X#o#ooX#o#XX####oo##ooooXX$o$o##555ABVSSVSMVMVNSAe55eo####+$+%+%+%%%.##jsfjssj",
"11ee1111111X.##.oo%.oX#o#o#Xoo#oo#XoXo#XXo#X#Xo##o#oXo#o#51111i55555e15NSNBe5555777r67777====1111777",
"11111111111X##.#ooo%o#XoXoX#X#XooX#oX#oXX#oX#oX#oo#o#oXXo51111155555ee5NNVB5555577r77rr77====1111:77",
"11111111111#..#.%.%.#.###Xoo#X#X##XoXo##oo#X#Xooo#Xo#Xo##1111111555551eMVVNqee556777r7ur7====1111111",
"11111111111.####.%.%.#.#ooX#X#X#XoX##oXo#X#ooX#Xoo#o#oX##111111155555q1SNSM55155767777777====1111111",
"11111111117#.%.#%.#.#.#.#XoXoX#ooXo##XoXX#Xoo#X###oXXXoo#11111115555551NAVSe5e1577777rr77====1111111",
"11111111117.%.%..#.###X#X#o#o#Xo##oXoX##ooX#X#ooooo#o##X.1111111555555qMNVNr5555777uu777r====1111111",
"11111111111.##.####.#.#.#X#X##ooXoXXXXX#XooXXo#XX##o#ooo#111111111111q1MMMMq17177977r77r7====7111111",
"11111111111#.#%..#>111,11>111>5155,55<,51>5155oXooXXXo###.#.#..#1:11111,e11ffjffjjVVMZSMVVCVM1111111",
"11111111111#oo.%#X1>1>1,>11,1>>15>5,<,5,115511X##Xo#o#oo#.######:11111>1111ffjfjffMVVVMZVVVnM7111111",
"11111111111.oo%..#,1>1,11>>1>111>5><,5,<1>1511Xo#oX#oX#o.##...#.11>11>1,>11jfffjjfMVVVVVVVVVM7111111",
"11111111111Xo##.#.111:11,1115551555555<5e>555e##X##o#oooooo##.%.71171717111ffjffjjnnVMVVnnVnV7771777",
"xBxMMMvffff17111111111111vMMVBBBBBBSshhskhhBVVVAVAAVAA####oo.%.%o$#..#.%#.#1111117717777117777rrw7r7",
"nnBvMxxffff,11>1:11111115NMMVSSVBVVVkhhhkhjSBSAAAAAAAAo#oooooo%.$o%####.#*#11111111111:7777177r77rw7",
"nnnnvvvffff1>1:1111111111NNMVVVVVVVBhhfhhhhVSVAAAAAAAA#o##ooo%.%+%.%.##%.#.1111111111111:7>77rrurrur",
"nnnnnnnffff,1,1,1,1111111MNBBSNVNVNAjhfjjjfVNASAAAAAAA##%#.%ooo#o####o$o##.111111111111111111rwritee",
"nnnnnnnffff1,1,1,11111115NBNBVVSAAANhhjjfjjSAAAAAAAAAA##.#%.ooo##o##.%o$###111111111111111111rrieett",
"nnnnnnnffff>1,1,1,11115q1NNBNVVSVAVVjjjfjfjVNASVAAAASS##%.+%oooo####$o$o.##11111111111111111erqrttre",
"nnnnnnnffff1,1,1,111115e1MBNNAVVVBSBhhfkjfjSAASVAAAASV##%++%oo#o#o##o$o$###11111111111111111erqrttti",
"rururrte999sfsfsfsMMMNNNB5etpeeeee555555e151q111111111VAS7w777w71i55ee5555511111111111115tet5MMMvBbB",
"rtrtrrre9q9fsfsfsfvvNMNNBtttteee1eee55551e1e1511111111AAC777w77711eee5e555511111111111111eteeMvMvbvv",
"turrttte1q7sfsfsfsMvMNNNMrite5eeiq5e5555e1e1q111111111MSSw77777re1151e5555511111111111111eetevvMvBcv",
"rrutttrqq7qfsfsfsfMMNNNNBttttee55eee555511111e1111111qSCCp77y7771ei1e1e555511111111111115ereeMvvbvBB",
"trtutttqq1qffffsffvANVbbMttttee5ee55555555555111111111MCSw7r7r7we1e15e5151e11111111111115erteNvvBvbb",
"urrrrrue7qqsffsfffNvNvBbNt8tte5teeee555155555111111111CSCww77qr71e1e5e5e15111111111111115etrtvvMxvBv",
"rrturrr77q1fffffffAvNNBBNreeteeeeeee555155515511111111AMS7777rw7eee1eeee1eq11115111111115rttebbBvMvv",
"fssfsssffffq7qqq5qkkkkkkje5ee##o########XXX11111111117717VSVSVMSVVVBSNVhjkj15555511111111BNVV55ee1ee",
"sssssssffffqqqqqqqjjkkkkk5555#######.%.###X11,11111111111MAMAMSMVSNSAAAhfjje55555e1111115ASVSe5e11e1",
"sssssssjfffqq7qq5qkkkkkkk5555#######%#%##%#1,111111111111AMAMSMSSVAAACAjjjf1555555111111eSVSVe75i11e",
"sssssssffff1qqqqqqkkkkkkk5555###$#$$%%.###X11,11111111111VAMSMSMASASCSCjjjkq5555551111555NSVA7775e5e",
"sssssssffffqqqqqqrkkkkkkk5555###o$o$%.###X#1,111111111111VMAMSMSANANSCSjkfjq555551111555eNBVB7775e55",
"ssssssfsfff5qq51qqjjjkkkke555#######o$##o##55,1111111111eVVMVBVBNANVBSMjjjj55555551177711BSAM77755i5",
"sssssssjfffqq5qeqqkjjjkkj5555#######$o#o#oo1>51111111111eVBBVSBbAAAMASVfjjj55555551175>5iVVSAq77e5q1",
"5q007qw9q5515511q1r7555555551#####o###ooo#oo#X111,1,1:115511ee11q511e515q555e55eeeee5et5qxMxMqr7e5e5",
"q50qq7995qq11511:77qeq5eq5551###$o$#ooo#ooo#XX>>,1>11111111155115515551555q5iqee5eeet5e5evvvv77re5ee",
"50009999q00111115555qq5q11111.####o$X##o#Xo#Xo111,1,1>111111511111111115555eeeeqeeeeeeetecMxx1eee1ee",
"000077w95qq111111151q11171111####o$ooooo#oX#X#15,1,1111111115511111111155555eeeee5eteeetevvvMqe7eee5",
"**%*%%%#%#%11,1>,111551117117o.%o#o##Xo#XXoooo##.##X#.#.#ooo#XoX1,11,11fjffMNNNNMvBNNVVVBieee1111111",
"****%*#%###1,1,1,111551111111$o%###X#oo#o##X#XXo##.#.####ooooX##,1,11>1ffhhvNNNNvBVBBBVVMeeee1111111",
"#*%%%&&%$$$11>11:111111111111###.%$$oooooXX#X##o.##.##.#o#ooo#Xo1,1,1,1ffffvvANNMAVVVVVVMee5r5e51111",
"*#%*%%&%$$$17>:11:11111111111#%.%.$ooo#o##ooooXX.#.##..#o#o#oX#o,1,1,1,ffffMMvNNMMVVVVVVNrt5e51>1111",
"#%**&&&%%$#11:111111111111117o%.#%##o#ooXo#X#Xo###.#%.#.oooo##XX1,1,1,1ffffvMNMNMvVVVVMVNreee1111111",
"*%**&&&%###1>1:11>11111711111$$%#*..ooo#X#oX#oX#.##..%.%#oo#Xoo#,1,1,1,fffjMNMNMvAVVVVMMVe5e11111111",
"%%%%&%%+oo$77:7:,111711711111####.###.X#oXo##XoooXo#%ooooo#.ooo#1>11111ffffMMMMMMMVVMMMMM777pq111111",
"$+$$%%$%oo$o###%%###%.#.#1,1>>:1>111######oXoX#X##ooooooo.o#o.oo>3>32>>3314:1:::1:333383888882222222",
"+$$+$ + %o+%#%%%#########>1,1>1:1>11########o#X#Xo#oooo#oooo#ooo3>3>3>3>333:::::::333333888882222222",
"$++$$$$$.%++%%##*##.##.##1,1,1111>11%.##X#oXX#ooX#oo##oo#ooooooo>3>213>3131:::::::333338;88882222222",
"o$o$o$oooo###$$$$$o#o$o$#>11>1,1,1,1####%.ooooo##Xoo#Xo#XXoXoooo>;:8:3:>314:::::::333333388882222222",
"$$$o$o$oo#o#$$$$$$$#$o$o#5>1111,1,1,.#.%#%$oo#oooX#X#oX#o#X#oooo3>213:33434:::::::333333388882222222",
"o$o$o$$ooo##$$$$$$o$#$o##111:111,1,1###X%+$o#o#oo#o#XXoo#.#.oooo3:3:31334441::::::333333388882222222",
"$o$o$o$o#oX#$$$$$$$$#o$##1;11>111,1,##.#.%oooo#oX#ooo##X.#.oooo#:213:31>444;::::::333333388882232222"
};
