/* XPM */
static char *ee56772d592c4117fbfce3cc0ec5eaa2o8dnLH3Py8Bez23c[] = {
/* columns rows colors chars-per-pixel */
"100 100 7 1 ",
"  c #767676",
". c #7C7C7C",
"X c #8B8B8B",
"o c gray55",
"O c gray58",
"+ c #979797",
"@ c #9F9F9F",
/* pixels */
"OOOOXXXOOOOOOOOOOOOOOOOOO@@@@@@@O+++++++++++++XXXXXXXX@@@@@@@@@@@@@@@@@@@@@++++oooXXXXXXXXXXXXXXXXXX",
"OOOOXXXOOOOOOOOOOOOOOOOOO@@@@@@@++++++++++++++ooXXXXXX@@@@@@@@@@@@@@@@@@@@@++++oXXXXXXXXXXXXXXXXXXXX",
"OOOOXXXOOOOOOOOOOOOOOOOOO@@@@@@@++++++++++OO++ooXXXXXX@@@@@@@@@@@@@@@@@@@@@+++OXXXXXXXXXXXooXXXXXXXX",
"OOOOXXXOOOOOOOOOOOOOOOOOO@@@@@@O++++++++++OO++ooXXXXXX@@@@@@@@@@@@@@@@@@@@@+OOOXXXXXXXXXXXXoXXXXXXXX",
"XXXX........................X..XXXXXoooXXXXXXXXXXXXXXXXXo+++O++++++++OOXooXXXXX...              XXXX",
"XXXX.................... X......XXXoooXXXXXXXXXXXXXXXXXXo+++O++++++++OOXooXXXXX...              XXXX",
"XXXX.......................X..X.XXooXXXXXXXXXXXXXXXXXooXoOO++O++O++O++OXoXXXXoo...            . XXXX",
"OOOOXXXXXXXXXXXXXXXXXXXXXXoooXXXX.....X..X....X..X....oXooooooooooooooXX.o....XOOO@@@@@@@@@@@@@@@@@@",
"OOOOXXXXXXXXXXXXXXXXXXXXXXXXXXXX..X..X..X..X..X.X..X..XXooXXXXXXXXXXXXX.X..X..XO++@@@@@@@@@@@@@@@@@@",
"OOOOXXXXXXXXXXXXXXXXXXXXXXXXXXXX....................X.XXooXXXXXXXXXXXXX.....X..O++@@@@@@@@@@@@@@@@@@",
"OOOOXXXXXXXXXXXXXXXXXXXXXXXXXXXXX..XX..X.....XX.......XXXXXXXXXXXXXXXXX........O++@@@@@@@@@@@@@@@@@@",
"OOOOXXXXXXXXXXXXXXXXXXXXXXXXXXXX........X..X....X..X..XXXXXXXXXXXXXXXXX.X..X..XO++@@@@@@@@@@@@@@@@@@",
"OOOOXXXXXXXXXXXXXXXXXXXXXXXXXXXX..........X.......X.X.XXXXXXXXXXXXXXXXXX..X...oO++@@@@@@@@@@@@@@@@@@",
"OOOOXXXXXXXXXXXXXXXXXXXXXXXXXXXXX.X..X.X....X.X.......XXXXXXXXXXXXXXXXX........O++@@@@@@@@@@@@@@@@@@",
"OOOOXXXXXXXXXXXXXXXXXXXXXXXXXXXX..X..X..X.....X.X..X..XXXXXXXXXXXXXXXXX.X..X.ooO++@@@@@@@@@@@@@@@@@@",
"OOOOXXXXXXXXXXXXXXXXXXXXXXXXXXXX..........X.........X.XXXXXXXXXXXXXXXXX........O++@@@@@@@@@@@@@@@@@@",
"OOOOXXXXXXXXXXXXXXXXXXXXXXXXXXXX..X.......X......X..X.XXXXXXXXXXXXXXXXX.......oOOO@@@@@@@@@@@@@@@@@@",
"OOOOXXXXXXXXXXXXXXXXXXXXXXXXXXXXX.....X.X.....X.......XXXXXXXXXXXXXXXXX..XX....O+O@@@@@@@@@@@@@@@@@@",
"OOOOXXXXXXXXXXXXXXXXXXXXXXXXXXXX....X.X.....X.X..XX...XXXXXXXXXXXXXXXXXX.....oo+++@@@@@@@@@@@@@@@@@@",
"OOOOXXXXXXXXXXXXXXXXXXXXXXXXXXXX..X.......X.........X.XXXXXXXXXXXXXXXXX..X.....+++@@@@@@@@@@@@@@@@@@",
"OOOOXoooXXXXXXXXXXXXXXXXXXXXXXooX....X..X....X....X...XXXXXXXXXXXXXXXXo..X.....O+O@@@@@@@@@@@@@@@@@@",
"@@@@OOOoXXXXXXXXXXXXX@@@@@@@@@@@XXXXXXXXXXXXXX@@@@@@@@@@@XXXXXXXXXXXXooXXXXXooXXooooXXXXXXXXXXXXXXXX",
"@@@@+++oXXXXXXXXXXXXX@@@@@@@@@@@XXXXXXXXXXXXXX@@@@@@@@@@@XXXXXXXXXXXXXXXXXXXoXXXXXooXXXXXXXXXXXXXXXX",
"@@@@+++oXXXXXXXXXXXXX@@@@@@@@@@@XXXXXXXXXXXXXX@@@@@@@@@@@XXXXXXXXXXXXXXXXXXXXXXXXXooXXXXXXXXXXXXXXXX",
"@@@@OO+ooXXXXXXXXXXXX@@@@@@@@@@@XXXXXXXXXXXXXX@@@@@@@@@O@XXXXXXXXXXXXXXXXXXXXXXXXXXXXXXXXXXXXXXXXXXX",
"ooXoXXooooXXXXXXXXXXXXXXXO+O+oooXXXXXXXXXXXXXX.........X.XXXXXXXXXXXXXX@@@@@@@@@@@OOOOOOOOOOOOOOXXXX",
"XXXXXXooXXXXXXooXXXXXXooo+++OoooXXXXXXXXXXXXXX...........ooXXXXXXXXXXXX@@@@@@@@@@@OOOOOOOOOOOOOOXXXX",
"XXXXXXXoXXXXXXXoXXXXXXXoo+++OXXoXXXXXXXXXXXXXX...........oXXXXXXXXXXXXX@@@@@@@@@@@OOOOOOOOOOOOOOXXXX",
"XXXXXXooXXooooooXXoooooooO+++oooXXXXXXXXXXXXXX.........X.XXXXXXXXXXXXXX@@@@@@@@@@@OOOOOOOOOOOOOOXXXX",
"OOOOXXo+OO+++O++OO+++O++++++++++@@@@@@@@@@@@@@@@@@ooXXooo@@@@@@@@@@@@@@@@@@OOOOXXX..................",
"OOOOXXXO++++++++++++++++++++++++@@@@@@@@@@@@@@@@@@oXXXXXo@@@@@@@@@@@@@@@@@@OOOOXXX..................",
"OOOOXXXO++++++++++++++++++++++++@@@@@@@@@@@@@@@@@@XXXXXXo@@@@@@@@@@@@@@@@@@OOOOXXX..................",
"XXXX..X..X..X..X.X..X..X.XXXXXXXXXXXXXXXXXXXXX.X..X...XXXXXXXXXXXXXXXXX.X..X..X..X..X..X........XXXX",
"XXXXX......X.......X.....XXXXXXXXXXXXXXXXXXXXX.......XXXXXXXXXXXXXXXXXX.................X..XX.X.XXXX",
"XXoX.....................oXXXXXXXXXXXXXXXXXXXX..X..X..XXXXXXXXXXXXXXXXX......XX....X..........X.XXXX",
"XXoo..X..X..X..X.X..X..X.XXXXXXXXXXXXXXXXXXXXX.X......XXXXXXXXXXXXXXXXX.X..X.....X..X..X.X......XXXX",
"XXXX..X..X...X...X...X..XXXXXXXXXXXXXXXXXXXXXX.X......XXXXXXXXXXXXXXXXXX..X...........X.X..X..X.XXXX",
"XXXX.....................XXXXXXXXXXXXXXXXXXXXX..X.X..XXXXXXXXXXXXXXXXXX.....X.X..X..........X...XXXX",
"XXXX.XX..XX.X..o.XX.X..X.XXXXXXXXXXXXXXXXXXXXX....X..XXXXXXXXXXXXXXXXXX.X.....X..X.XX..X........XXXX",
"XXXX.....................XXXXXXXXXXXXXXXXXXXXX.X......XXXXXXXXXXXXXXXXX...X.............X..X..o.XXXX",
"XXXX.....o..X............XXXXXXXXXXXXXXXXXXXXX.......XXXXXXXXXXXXXXXXXX.......................o.XXXX",
"XXXXX..X.......o.X.XX..XXoXXXXXXXXXXXXXXXXXXXX....X...XXXXXXXXXXXXXXXXXX..X...o..XX..oo..oX.....XXXX",
"XXXX.X..o..o.o...X..X....oXXXXXXXXXXXXXXXXXXXXX.X.X...XXXXXXXXXXXXXXXXX.X.X.o.o.X.....X......oX.XXXX",
"@@@@@@@OOOO+O+OOOOOOO....    ...XXXXXXXXXXXXXXXXXX@@@@@@@OOOOOOOOOOOOOOXXXoOOO++OO@@@@O@@@@@@@O@@@@@",
"@@@@@@@O+++++++O+++OO....    ...XXXXXXXXXXXXXXXXXX@@@@@@@OOOOOOOOOOOOOOXXXXOOO++OO@@@@@@@@@@@@@@@@@@",
"@@@@@@@OOO+++++O+++OO....    ...XXXXXXXXXXXXXXXXXX@@@@@@@OOOOOOOOOOOOOOXXXXOOO++OO@@@@@@@@@@@@@@@@@@",
"XXXXOOOXXXXoooXXooXXXXXXXXXXXXXXOOOOOOOOOOOOOOXXXXXXXXOOOOOOOOOOOOOOOOOXXXX.X..Xo.oXXXXXoXXXXXXXXXXX",
"XXXXOOOXXXXoooooooXXXXXXXXXXXXXXOOOOOOOOOOOOOOXXXXXXXXOOOOOOOOOOOOOOOOoXXXXX......oXXXXXooXXXXXXXXXX",
"XXXXOOOoXXXXXXXXXXXXXXXXXXXXXXXXOOOOOOOOOOOOOOXXXXXXXXOOOOOOOOOOOOOOOOOXXXX...X.X.XXXXXXXXXXXXXXXXXX",
"XXXXOOOoXXXXXXXXXXXXXXXXXXXXXXXXOOOOOOOOOOOOOOXXXXXXXXOOOOOOOOOOOOOOOOOXXXXX......XXXXXXXXXXXXXXXXXX",
"XXXXOOOoXXXXXXXXXXXXXXXXXXXXXXXXOOOOOOOOOOOOOOXXXXXXXXOOOOOOOOOOOOOOOOOXXXX..XX...XXXXXXXXXXXXXXXXXX",
"XXXXOOOoXXXXXXXXXXXXXXXXXXXXXXXXOOOOOOOOOOOOOOXXXXXXXXOOOOOOOOOOOOOOOOOXXXX.....X.XXXXXXXXXXXXXXXXXX",
"XXXXOOOoXoooXXXXoooXXXXXXXXXXXXXOOOOOOOOOOOOOOXXXXXXXXOOOOOOOOOOOOOOOOOXXXX.X.....ooXXXXXXXXoXXXXXXX",
"XXXXOOOoXoooXXXXoooXXXXoXXXXXXXXOOOOOOOOOOOOOOXXXXXXXXOOOOOOOOOOOOOOOOOXXXX...X...XoXXXXXXXXooXXXXXX",
"OOOOOOOOOO++++OO++++O@@@@@@@@OOO@@@@@@@@@@@@@@@@@@@@@@XXXOOOOOOOOOOOOOO@@@@@@@@...              XXXX",
"OOOOOOOO++++++++++++O@@@@@@@@OOO@@@@@@@@@@@@@@@@@@@@@@XXXOOOOOOOOOOOOOO@@@@@@@@...              XXXX",
"OOOOOOOO++OO++++OO+++@@@@@@@@OOO@@@@@@@@@@@@@@@@@@@@@@oooOOOOOOOOOOOOOO@@@@@@@@....  .  .  .  . XXXX",
"XXXXoooXooXXooooXXoooOOOOXXXXXXXOOOOOOOOOOOOOO@@@@XXXXXXXXXXXXXXXXXXXXXXXXXXXXXXXX++OOOO++OOOO++@@@@",
"XXXXXXXXooXXXXooXXXXoOOOOXXXXXXXOOOOOOOOOOOOOO@@@@XXXXXXXXXXXXXXXXXXXXXXXXXXXXXXXXO+++++++++++++@@@@",
"XXXXXXXXooXXXXXXXXXXoOOOOXXXXXXXOOOOOOOOOOOOOO@@@@XXXXXXXXXXXXXXXXXXXXXXXXXXXXXXXXO+++++++++++++@@@@",
"XXXXXXXXXXXXXXXXXXXXXOOOOXXXXXXXOOOOOOOOOOOOOO@@@@XXXXXXXXXXXXXXXXXXXXXXXXXXXXXXoo++++++++++++++@@@@",
"XXXXXXXXXXXXXXXXXXXXXOOOOXXXXXXXOOOOOOOOOOOOOO@@@@XXXXXXXXXXXXXXXXXXXXXXXXXXXXXXoo++++++++++++++@@@@",
"XXXXXXXXXXXXXXXXXXXXXOOOOXXXXXXXOOOOOOOOOOOOOO@@@@XXXXXXXXXXXXXXXXXXXXXXXXXXXXXXoo++++++++++++++@@@@",
"XXXXXXXXXXXXXXXXXXXXXOOOOXXXXXXXOOOOOOOOOOOOOO@@@@XXXXXXXXXXXXXXXXXXXXXXXXXXXXXXXX++++++++++++OO@@@@",
"XXXXXXXXXXXXXXXXXXXXXOOOOXXXXXXXOOOOOOOOOOOOOO@@@@XXXXXXXXXXXXXXXXXXXXXXXXXXXXXXXXOO++++++++++++@@@@",
"XXXXXXXXXXXXXXXXXXXXXOOOOXXXXXXXOOOOOOOOOOOOOO@@@@XXXXXXXXXXXXXXXXXXXXXXXXXXXXXXXX++++++++++++++@@@@",
"XXXXXXXXXXooXXXXXXXXXOOOOXXXXXXXOOOOOOOOOOOOOO@@@@XXXXXXXXXXXXXXXXXXXXXXXXXXXXXXoo+++++O++++++++@@@@",
"XXXXXXXXXXXoXXXXXXXXXOOOOXXXXXXXOOOOOOOOOOOOOO@@@@XXXXXXXXXXXXXXXXXXXXXXXXXXXXXXoo+++++O++++++++@@@@",
"@@@@O++@@@@@@@@@@@@@@oXXXXXXXOOOOOOOOOOOOOOOOO@@@@@@@@OOO..............        XoooXXXoXXXXoooooXXXX",
"@@@@O++@@@@@@@@@@@@@@oXXXXXXXOOOOOOOOOOOOOOOOO@@@@@@@@++O..............        oXXooXXooXXXoooXXooXX",
"@@@@OO+@O@@@@@@@@O@+@ooXXXoXoOOOOOOOOOOOOOOOOO@@@@+@@@++O.. .. ... .. .        oXoooXoooXXooooXXoooo",
"XXXXXoooX....X...X.o..X....o.@@OXXXXXXXXXXXXXXXXXoo....oX..X..o...X..X.XXXXXXXoOOO++OO++OO++++OO++++",
"XXXXXXXX..X......X.......XX..@@@XXXXXXXXXXXXXXXXXX.X..X.......o.X..X..oXXXXXXXXO++++++++++++++++++++",
"XXXXXXX......XX....X..o......@@@XXXXXXXXXXXXXXXoXX......X..X...........XXXXXXXXO++++++++++++++++++++",
"XXXXXXX....X..X.....o.o..X...@@@oXooXXXXXXXXXXooXX...X..X....oX..X...oooXXXXXXXO++O+++OO+++O+O++OOOO",
"       .... .. ......O++O@@@@@@@@@@@@@@@@@@@@@@@@@XoXooXX@@@@@O@O@@@@@++OOOXXXXXooooooXXoooooooooooX",
"       ..............O++O@@@@@@@@@@@@@@@@@@@@@@@@@XXXXXXXO@@@@@@@@@@@@@+O+OXXXXXoXXXXXXXXXXXooXXXXXX",
"       ..............O+++@@@@@@@@@@@@@@@@@@@@@@@@@XXXXXXo@@@@@@@@@@@@@@O++OXXXXXooXXXoXXXXXoooXXXXXX",
"       ..............OOO+@O@@@@@O@@@@@@@@@@@@@@@@OooXXXXo@@@@@@@@@@@@@@O+O+oXooXXXXXooXXXXooXXXXXXXX",
"XXXXXXXXoooXXXXXXXooXXXoooX....XX....X....X......X.o..XXoXXXXXXXoooXXXXXoooo...X..X.....X.....X.XXXX",
"XXXXXXXXXXXXXXXXXXXXXXXXX..X..X.X..X..X..X..X..XX..X..XXXXXXXXXXXXXXXXXXXXXX.X..................XXXX",
"XXXXXXXXXXXXXXXXXXXXXXXXXX..........................X.XXXXXXXXXXXXXXXXXXXXX....X.XX.X..XX.X..XX.XXXX",
"XXXXXXXXXXXXXXXXXXXXXXXXX...X..X....X....XX...........XXXXXXXXXXXXXXXXXXXXX...............X.....XXXX",
"XXXXXXXXXXXXXXXXXXXXXXXXX..X....X..X..X.....X..XX..X..XXXXXXXXXXXXXXXXXXXXX..X...X...X.......X..XXXX",
"XXXXXXXXXXXXXXXXXXXXXXXXX....X...X...........X....X.X.XXXXXXXXXXXXXXXXXXXXX.X..X.X..X..XX..X....XXXX",
"XXXXXXXXXXXXXXXXXXXXXXXXX.X...........X..X.X..........XXXXXXXXXXXXXXXXXXXXX.................X..XXXXX",
"XXXXXXXXXXXXXXXXXXXXXXXXX.X..XX.X..XX.X..X.....XX..X..XXXXXXXXXXXXXXXXXXXoX........X............XXXX",
"XXXXXXXXXXXXXXXXXXXXXXXXo....................X......X.XXXXXXXXXXXXXXXXXXXoo.X..X.X..X..XX..X..X.XXXX",
"XXXXXXXXXXXXXXXXXXXXXXXXoXX..X...............o........XXXXXXXXXXXXXXXXXXXXX..X.......X....X..X..XXXX",
"XXXXXXXXXXXXXXXXXXXXXXXXX.......X..XX.X..X.....oX.X..XXXXXXXXXXXXXXXXXXXXXX......X.....o........XXXX",
"XXXXXXXXXXXXXXXXXXXXXXXXX....XX.......X..X.X......X...XXXXXXXXXXXXXXXXXXXXX....X.X.X....X....XX.XXXX",
"XXXXXXXXXXXXXXXXXXXXXXXXX.X......X...........X......X.XXXXXXXXXXXXXXXXXXXXXX.X.......X....X.....XXXX",
"ooooXoooXXXXXXXXXXXXXXXXo.....X.X..X..X........o.o....XXoXXXooooXXXXXXXXoXX..........o.oX.....X.XXXX",
"@@@@OOO@@@@@@@@@@@@@@XXXXXXXXXXX....X....XX.o.OOOO@@@@@@@..............    ....X.X@@@@+@O@@@@@@@@@@@",
"@@@@+++@@@@@@@@@@@@@@XXXXXXXXXXX..............++OO@@@@@@@..............    ......X@@@@@@@@@@@@@@@@@@",
"@@@@+++@@@@@@@@@@@@@@XXXXXXXXXXXX..X..X..X...o++++@@@@@@@..............    .......@@@@@@@@@@@@@@@@@@",
"@@@@+++@@@@@@@@@@@@@@oXXXXXXXXXX....X..X..X..XOO++@@@@@@@..............    .......@@@@@@@@@@@@@@@@@@",
"@@@@+++@@@@@@@@@@@@@@oXXXXXXXXXXX..X..........OO++@@@@@@@..............    ... XX.@@@@@@@@@@@@@@@@@@",
"@@@@++O@@@@@@@@@@@@@@ooXXXXXXXXX........X.....O+++@@@@@@@..............    .......@@@@@@@@@@@@@@@@@@",
"@@@@+++@@@@@@@@@@@@@@oXXXXXXXXXX..X.X..X..X..o+++O@@@@@@@..............    ......X@@@@@@@@@@@@@@@@@@"
};
