/* XPM */
static char *_da2d04a86364477f38ba13561b4e37cobSgCaUB38I6G2xO[] = {
/* columns rows colors chars-per-pixel */
"28 28 18 1 ",
"  c black",
". c #3A0911",
"X c #767676",
"o c #7C7C7C",
"O c #811426",
"+ c #A11B31",
"@ c #848484",
"# c gray52",
"$ c #8B8B8B",
"% c #8D8D8D",
"& c #939393",
"* c gray58",
"= c #979797",
"- c #9F9F9F",
"; c gray66",
": c gray67",
"> c #B7B7B7",
", c white",
/* pixels */
"*$**@@oo;.......$@$$-&$$$$$$",
"$oooooo;.O++++++.>--$$oXXXX$",
"*$$$$o%.O+++....+.>;o@&-----",
"*$$$$@.O+++.    .+.;@o&;----",
"*$$$$%.O++.      .+.oo*-----",
"*$$$%.OO++.      .+.@@*-----",
"-*%$$.OOO+. ,   ,.+.%%$$$$$$",
"$$%$$.O.O+. ,   ,.+.---&&&&$",
"*%==*.O.O+.      .O.-&$ooooo",
"$o@oo>..OO+.     .O.@o@oo@o$",
"$o@oo@*=.OOO.   .O.;@o@oo@o$",
"$@oo@ooo-..OO...O.;$$oo@@oo@",
"--***@o;.OOO+++++O.&%**-----",
"$&%%%@o.O+++++++++O.%o@$$$$$",
"%*%$%oo.O+++++++++O.$oo$$$$$",
"***&*o&.+++++++++++.-;oXXXX$",
"%%$$$@.O+++++++++++.%%$*===;",
"$%$$$o.O++++++O++++O%%%*===;",
"$%$$%o.O++++++O++++O$$%*&*&;",
"-&--;%.O+++++O.O++OOXX%%$%$%",
"$$@oo.OOO+O+OO.OO+OO$$**&***",
"XXooo.OOOO+OO. .OOOO*%%%$$%%",
"$$$$%.O.OOOO.  .OO.O%oo@ooo$",
"$$$$%;..O.OO.   .OO.%@oo@o@$",
"$$$$$o;..;...;* ...;$o@ooo@$",
"$$$$%@@;&$  =o@: ;o@%oo@@oo$",
";*--=o@oo@* @**o *;oXoo---;*",
"-&--;@@ooo% @@%$ @o@Xoo;---;"
};
