/* XPM */
static char *_9e8b3a000424374c83c73a1058997c17QVTWs0vpI5poqv0[] = {
/* columns rows colors chars-per-pixel */
"100 100 16 1 ",
"  c #1B141E",
". c #767676",
"X c #7C7C7C",
"o c #EB8A06",
"O c #FFC95C",
"+ c #808080",
"@ c #838383",
"# c gray52",
"$ c gray53",
"% c #8B8B8B",
"& c gray56",
"* c gray58",
"= c #979797",
"- c #9F9F9F",
"; c #AFAFAF",
": c #FDF5F1",
/* pixels */
"****%%%******************-------**============%%%%%%%%---------------------====%%%%%%%%%%%%%%%%%%%%%",
"****%%%******************-------**============%%%%%%%%---------------------====%%%%%%%%%%%%%%%%%%%%%",
"****%%%******************-----;*===========*==%%%%%%%%---------------------===*%%%%%%%%%%%%%%%%%%%%%",
"****%%%******************-----=;===========*==%%%%%%%%---------------------====%%%%%%%%%%%%%%%%%%%%%",
"%%%%XXXXXXXXXXXXXXXXXXXXXX@X@XXX%%%%%%%%%%%%%%%%%%%%%%%%%===*=========*%%%%%%%%XXX..............%%%%",
"%%%%XXXXXXXXXXXXXXXXXXXXXXXXX@@X%%%%%%%%%%%%%%%%%%%%%%%%%===*==========%%%%%%%%XXX..............%%%%",
"%%%%XXXXXXXXXXXXXXXXXXXXX@X@X@X@%%%%%%%%%%%%%%%%%%%%%%%%%=============*%%%%%%%%XXX..............%%%%",
"****%%%%%%%%%%%%%%%%%%%%%%%%%%%%@X@X@XX#@XX@X@X@#X@XX@%%%%%%%%%%%%%%%%%@@+X@X++***----=;------------",
"****%%%%%%%%%%%%%%%%%%%%%%%%%%%%XX@X@X@XX@X@X@XX@XX@X@%%%%%%%%%%%%%%%%%X@XX@X+#===------------------",
"****%%%%%%%%%%%%%%%%%%%%%%%%%%%%X@X@XXX@@XXX@X@XXX@XXX%%%%%%%%%%%%%%%%%+X++X#+X*==------------------",
"****%%%%%%%%%%%%%%%%%%%%%%%%%%%%X@X@X@XXXX@X@X@X@XX@@X%%%%%%%%%%%%%%%%%+++++XX+*==------------------",
"****%%%%%%%%%%%%%%%%%%%%%%%%%%%%XX@X@X@@@@X@X@XXX@X@X@%%%%%%%%%%%%%%%%%X@XX@X@@===------------------",
"****%%%%%%%%%%%%%%%%%%%%%%%%%%%%@X@X@X@XX@X@X@X@X@X@X@%%%%%%%%%%%%%%%%%+XX@X+X@===------------------",
"****%%%%%%%%%%%%%%%%%%%%%%%%%%%%X@XXX@X@@X@XXX@X@XXX@X%%%%%%%%%%%%%%%%%++++++XX*==------------------",
"****%%%%%%%%%%%%%%%%%%%%%@@@@XXX@@X@X@XXXX@X@X@@XX@X#X%%%%%%%%%%%%%%@@@X@XX@X@#===------------------",
"****%%%%%%%%%%%%%%%%%%%%%@@X@X@@XX@X@X@XX@X@X@XX@@X@X#%%%%%%%%%%%%%%+@@+X++X@XX===------------------",
"****%%%%%%%%%%%%%%%%%%%%%@@@@X@X@XX@@XX@XX@XX@X@X@XX@X%%%%%%%%%%%%%%@@@X@+X@#X+===------------------",
"****%%%%%%%%%%%%%%%%%%%%%@X@@XX@XX@XXX@X@@X@XX@X@XX@X@%%%%%%%%%%%%%%@@@XX++XXX+*=*------------------",
"****%%%%%%%%%%%%%%%%%@@@@XXXX@XX@XX@;*-                      ---X++XXX+@+X+@@@#===------------------",
"****%%%%%%%%%%%%%%%%%@@@#X@@@X@XX@XX=;-                      ---@X+@X@+X+@X@@@#===------------------",
"****%%%%%%%%%%%%%%%%%@@@@X@X@X@XX@X@---                      ---XX@XX++XX@+@@@@*==----------;*------",
"----**=%%%%%%%%%%%@XX@@XX@X@X---       ::::::::::::::::::::::       ;--#+X+X@X+%%%%%%%%%%%%%%%$%%%%%",
"--;====%%%%%%%%%%%X@@XX@@XX#X;--       ::::::::::::::::::::::       *--X+X+@XX@%%%%%%%%%%%%%%%%%%%%%",
"--=;===%%%%%%%%%%%X@X@XXX@XXX*--       ::::::::::::::::::::::       ---+X@+X++X%%%%%%%%%%%%%%%%%%%%%",
"----*==%%%%%%%%%%%XXX@X@XX@X@---       ::::::::::::::::::::::       ---+X@XXXXX%%%%%%%%%%%%%%%%%%%%%",
"%%%%%%%%%%%%%%X@@@X@X@@XX**%%   ::::::::::::::::::::::::::::::::::::   $%$$@#@#---**************%%%%",
"%%%%%%%%%%%%%%@@@@@X@XX@X*%**   ::::::::::::::::::::::::::::::::::::   $###@#@#---**************%%%%",
"%%%%%%%%%%%%%%@@@@@XX@XXX%*%%   ::::::::::::::::::::::::::::::::::::   $$$#@@@X*--**************%%%%",
"%%%%%%%%%%%%%%#@X@#X@XX@@%%*%   ::::::::::::::::::::::::::::::::::::   #$$$#@@@;--**************%%%%",
"****%%%*========**==*@@X@    ::::::::::oooooooooooooooooooooo::::::::::    XX+X%%%XXXXXXXXXXXXXXXXXX",
"****%%%*============*X#XX    ::::::::::oooooooooooooooooooooo::::::::::    @X+@%%%XXXXXXXXXXXXXXXXXX",
"****%%%*============*#X@@    ::::::::::oooooooooooooooooooooo::::::::::    X@X+%%%XXXXXXXXXXXXXXXXXX",
"%%%%@XX@+X++X@+X++X+@&&%&    :::OOOOoooOOOOOOOOOOOOOOOOOOOOOOoooOOOO:::    &&&&+X@+X@+X@+X@+X@+X%%%%",
"%%%%X++X+@XX+X+@XX@++&&*&    :::OOOOoooOOOOOOOOOOOOOOOOOOOOOOoooOOOO:::    &%*&@+X+XX++X+XX++X+X%%%%",
"%%%%++++X@X@+X+X@X@XX*%%&    :::OOOOoooOOOOOOOOOOOOOOOOOOOOOOoooOOOO:::    &%%%@+X+@X++XX@@X+X+@%%%%",
"%%%%@XX@+X++X@+X++X++%*%&    :::OOOOoooOOOOOOOOOOOOOOOOOOOOOOoooOOOO:::    &*%*XX@+X@+X@++X+X@+X%%%$",
"%%%%X@XX+X++@X+@X++X@    OOOOOOOooooOOOOOOOOOOOOOOOOOOOOOOOOOOOOooooOOOOOOO    X+X++XX@X++X+X@+X%%%%",
"%%%%++++X@@XX++X@XX@X    OOOOOOOooooOOOOOOOOOOOOOOOOOOOOOOOOOOOOooooOOOOOOO    #+@XX++++X@@X+X+@%%%%",
"%%%%@XX@+XX+X+XX+++++    OOOOOOOooooOOOOOOOOOOOOOOOOOOOOOOOOOOOOooooOOOOOOO    XX@X@@XX@+XX++X+X%%%%",
"%%%%X++X+@X+@X@#XX@X@    OOOOOOOooooOOOOOOOOOOOOOOOOOOOOOOOOOOOOooooOOOOOOO    ++X++X++X+X@+X@+X%%%%",
"%%%%XX@XXX@X+++X@X#XX    OOOOOOOooooOOOOOOOOOOOOOOOOOOOOOOOOOOOOooooOOOOOOO    ++X++@X+@XX@X@X+@%%%%",
"%%%%++++#XX@@X+X++X+@    OOOOOOOooooOOOOOOOOOOOOOOOOOOOOOOOOOOOOooooOOOOOOO    XX@@XX@+X++++X@+X%%%%",
"%%%%++X@++X#X@+#X#X+X    OOOOOOOooooOOOOOOOOOOOOOOOOOOOOOOOOOOOOooooOOOOOOO    #X@X+XX#X+XX@XXX+%%%%",
"-------*====*=***===*    OOOOOOOooooOOOOOOOOOOOOOOOOOOOOOOOOOOOOooooOOOOOOO    =**-----------*;-----",
"-------*=============    OOOOOOOooooOOOOOOOOOOOOOOOOOOOOOOOOOOOOooooOOOOOOO    ===------------------",
"------;*=============    OOOOOOOooooOOOOOOOOOOOOOOOOOOOOOOOOOOOOooooOOOOOOO    *==------------------",
"%%%%**%%%%%%%%%%%%%%%    OOOOOOOooooOOOOOOOOOOOOOOOOOOOOOOOOOOOOooooOOOOOOO    X#+%%%%%%%%%%%%%%%%%%",
"%%%%***%%%%%%%%%%%%%%    OOOOOOOooooOOOOOOOOOOOOOOOOOOOOOOOOOOOOooooOOOOOOO    +X+%%%%%%%%%%%%%%%%%%",
"%%%%***%%%%%%%%%%%%%%    OOOOOOOooooOOOOOOOOOOOOOOOOOOOOOOOOOOOOooooOOOOOOO    +X+%%%%%%%%%%%%%%%%%%",
"%%%%***%%%%%%%%%%%%%%    OOOOOOOooooOOOOOOOOOOOOOOOOOOOOOOOOOOOOooooOOOOOOO    X@@%%%%%%%%%%%%%%%%%%",
"%%%%***%%%%%%%%%%%%%%    OOOOOOOooooOOOOOOOOOOOOOOOOOOOOOOOOOOOOooooOOOOOOO    @X+%%%%%%%%%%%%%%%%%%",
"%%%%***%%%%%%%%%%%%%%    OOOOOOOooooOOOOOOOOOOOOOOOOOOOOOOOOOOOOooooOOOOOOO    XX+%%%%%%%%%%%%%%%%%%",
"%%%%***%%%%%%%%%%%%%%    OOOOOOOooooOOOOOOOOOOOOOOOOOOOOOOOOOOOOooooOOOOOOO    +@+%%%%%%%%%%%%%%%%%%",
"%%%%***%%%%%%%%%%%%%%    OOOOOOOooooOOOOOOOOOOOOOOOOOOOOOOOOOOOOooooOOOOOOO    +X+%%%%%%%%%%%%%%%%%%",
"********=============    ooooOOOOOOOOOOOOOOOOOOOOOOOOOOOOOOOOOOOOOOOOOOoooo    XXX..............%%%%",
"********=============    ooooOOOOOOOOOOOOOOOOOOOOOOOOOOOOOOOOOOOOOOOOOOoooo    XXX..............%%%%",
"*******=========****=    ooooOOOOOOOOOOOOOOOOOOOOOOOOOOOOOOOOOOOOOOOOOOoooo    XXX..............%%%%",
"%%%%%%%%%%%%%%%%%%%%%;;;;    ooooooo:::OOOOOOOOOOOOOOOOOOOOOO:::ooooooo    ;;;;%%%==============----",
"%%%%%%%%%%%%%%%%%%%%%;;;;    ooooooo:::OOOOOOOOOOOOOOOOOOOOOO:::ooooooo    ;;;;%%%*=============----",
"%%%%%%%%%%%%%%%%%%%%%;;;;    ooooooo:::OOOOOOOOOOOOOOOOOOOOOO:::ooooooo    ;;;;%%%*=============----",
"%%%%%%%%%%%%%%%%%%%%%;;;;    ooooooo:::OOOOOOOOOOOOOOOOOOOOOO:::ooooooo    ;;;;%%%==============----",
"%%%%%%%%%%%%%%%%%%%%%X@XX    oooooooooo::::::::::::::::::::::oooooooooo    XXX@%%%==============----",
"%%%%%%%%%%%%%%%%%%%%%XX@@    oooooooooo::::::::::::::::::::::oooooooooo    @X##%%%==============----",
"%%%%%%%%%%%%%%%%%%%%%@@XX    oooooooooo::::::::::::::::::::::oooooooooo    X++X%%%=============*----",
"%%%%%%%%%%%%%%%%%%%%%X@+X;;;;   oooooooooooooooooooooooooooooooooooo   *===+X@@%%%**============----",
"%%%%%%%%%%%%%%%%%%%%%+X+@;;;;   oooooooooooooooooooooooooooooooooooo   ====@+XX%%%==============----",
"%%%%%%%%%%%%%%%%%%%%%+X+X;;;;   oooooooooooooooooooooooooooooooooooo   ===*X+X+%%%==============---=",
"%%%%%%%%%%%%%%%%%%%%%X@++;;;;   oooooooooooooooooooooooooooooooooooo   ====#X@+%%%==============---;",
"----===--------------+@X+$$$#===       oooooooooooooooooooooo       ===$$$$X++X+#X@@X#%%%%%%%%%%%%%%",
"----===-------------;XX+X$$$$===       oooooooooooooooooooooo       ===$$$$+XX@+X#@#X#%%%%%%%%%%%%%%",
"----=*=---*;--------*@X+##%##*==       oooooooooooooooooooooo       **=$#$#@@X++@X@###%%%%%%%%%%%%%%",
"%%%%%%%@@XXX++X@X@X+XX@XX+X++#X++X#X---                      ---X++X#+@%%%%X+++XX@*=*=**============",
"%%%%%%%@XX@XX@XX@XX@@XX+@XX++X++++X+---                      ---#@X@X++%%%%@@X+@X+==================",
"%%%%%%%X++++++++X++XXX#+++@XX@@XX#@X---                      ---XX+X@XX%%%%XX++X@@==================",
"%%%%%%%@+XX@@XX+++@+@X#XX@X+X+X++XX+-;*                      ---XX+XX@X%%%%+X++XX+====*===========**",
".......XXXXXXXXXXXXXX*==*##@#---$#%$+XX#$##-------%%%%%%$-=;------*;####X@X+@X+%%%%%%%%%%%%%%%%%%%%%",
".......XXXXXXXXXXXXXX===*@@@@---$$$$X#+$$$$-------%%%%%%%-----------@@#X++X++X@%%%%%%%%%%%%%%%%%%%%%",
".......XXXXXXXXXXXXXX===*@@@@---$$$$XX+$$$$-------%%%%%%%-----------###+@X@XX@X%%%%%%%%%%%%%%%%%%%%%",
".......XXXXXXXXXXXXXX=**=#@@@---##$#@XX###$-;*---;#%%%%%%-----------###+XX@++@X%%%%%%%%%%%%%%%%%%%%%",
"%%%%%%%%%%%%%%%%%%%%%%%%%@++X@X+#X++X@#X+#X+X++X+XXXXX%%%%%%%%%%##@@XX#X++X++X++X@X+X@X++X@X++X#%%%%",
"%%%%%%%%%%%%%%%%%%%%%%%%%XX@XX@X@X+@X+@X+@X+@X+@+X++X@%%%%%%%%%%+@@@@XX@@XX@X@+X+@X+@X+@X+@X+@X+%%%%",
"%%%%%%%%%%%%%%%%%%%%%%%%%@++++++X++XX+X++XX+X++X+@XX+X%%%%%%%%%%@@+@X++XX++X+X+@+XX+X++XX+X++XX+%%%%",
"%%%%%%%%%%%%%%%%%%%%%%%%%++X@XX@X++X@+X+X@@XX++XX@X@+X%%%%%%%%%%%%%%@X+%%%%++X+XX@@XX++X@+X+X@@X%%%%",
"%%%%%%%%%%%%%%%%%%%%%%%%%XX@X++X@X+@X+@X+X++@X+@+X++X@%%%%%%%%%%%%%%+@+%%%%+X@+X+X++@X+@X+@X+X++%%%%",
"%%%%%%%%%%%%%%%%%%%%%%%%%+X++@X+X@XX++X++X++X@+X+X++X@%%%%%%%%%%%%%%+++%%%%+@X+@+X++X@+XX+@X+X++%%%%",
"%%%%%%%%%%%%%%%%%%%%%%%%%X@++XX+++++XX@+X@X@+X+XX@@XX#%%%%%%%%%%%%%%@X+%%%%+X++XX@X@+X+X@+X+X@@X%%%%",
"%%%%%%%%%%%%%%%%%%%%%%%%%+@XX@@X@XX@@X@X+@XX+X+@+XX++X%%%%%%%%%%%%%%%%%%%%%XX++X+@XX+X+@X+X++XX+%%%%",
"%%%%%%%%%%%%%%%%%%%%%%%%%XX++X++X++X++X++X++X@+X+@X++X%%%%%%%%%%%%%%%%%%%%%@@X+@+X++X@+XX+@X+@X+%%%%",
"%%%%%%%%%%%%%%%%%%%%%%%%%@@X+@X+X++X++X++X++X@XXX@+X@+%%%%%%%%%%%%%%%%%%%%%+X@+XX@+X@XX@@XX@XX@X%%%%",
"%%%%%%%%%%%%%%%%%%%%%%%%%XX++XX+@XX@@X@X+@XX+X@#+X+XX+%%%%%%%%%%%%%%%%%%%%%++X+X+X+@X++X++++++++%%%%",
"%%%%%%%%%%%%%%%%%%%%%%%%%+X+X@@X++++XX@+X@X@+X+X+X+@X@%%%%%%%%%%%%%%%%%%%%%X+X+@+X+X++++X++X@XX@%%%%",
"%%%%%%%%%%%%%%%%%%%%%%%%%+@X+X++X@XX++X++X++X@+XX@+X+X%%%%%%%%%%%%%%%%%%%%%@X@+XX@+X@XX@@XX@X++X%%%%",
"%%%%%%%%%%%%%%%%%%%%%%%%%X+++X@X@X+@X+@X+X++XX@#X@XX+X%%%%%%%%%$%%%%%%%%%%%X++X@+@X+XX@XX++X++X@%%%%",
"----*==--------------%%%%%%%%%%%X++X@+X+X@@X#X***=----*;-XXXXXXXXXXXXXX....XXXXX+X------;-----------",
"----===-------------*$%%%%%%%%%%X++XX+X++XX+++====-------XXXXXXXXXXXXXX....XXXX+@X------*-----------",
"----===-------------;%%%%%%%%%%%@X+@X+@X+@X+X#====-------XXXXXXXXXXXXXX....XXXX+X+------------------",
"----===--------------%%%%%%%%%%%@@X++X@+X@+X@+**==;------XXXXXXXXXXXXXX....XXXXX++------------------",
"----===--------------%%%%%%%%%%%+XX++XX++X+XX+=====------XXXXXXXXXXXXXX....XXXX+X@------------------",
"----===--------------%%%%%%%%%%%X@@XX@@X+X+@+X====-------XXXXXXXXXXXXXX....XXXXX+X------------------",
"----===--------------%%%%%%%%%%%+X++++X+X@+X+#===*-------XXXXXXXXXXXXXX....XXXX@+X------------------"
};
