/* XPM */
static char *c505648827424aace23399a5be731c12oVwbieHb49FuuTrV[] = {
/* columns rows colors chars-per-pixel */
"28 28 49 1 ",
"  c #124C85",
". c #124C86",
"X c #124D88",
"o c #124E89",
"O c #124F8B",
"+ c #12508B",
"@ c #11518C",
"# c #13558E",
"$ c #135890",
"% c #0C69A6",
"& c #0C6BA9",
"* c #0B6DAA",
"= c #0C6DAB",
"- c #0B6EAC",
"; c #0B6FAE",
": c #126CA8",
"> c #136FA9",
", c #106FAB",
"< c #0B70AF",
"1 c #0C70AE",
"2 c #0C71AF",
"3 c #1574AB",
"4 c #0B71B0",
"5 c #0A71B1",
"6 c #0C73B0",
"7 c #0C75B2",
"8 c #0E79B4",
"9 c #1674B1",
"0 c #1675B1",
"q c #0291D3",
"w c #0195D7",
"e c #0196D8",
"r c #0197D8",
"t c #0098DA",
"y c #029BDB",
"u c #019CDC",
"i c #29DBED",
"p c #29DFEF",
"a c #2ADFF0",
"s c #2AE0F0",
"d c #2AE2F1",
"f c #2BE3F2",
"g c #2BE4F2",
"h c #2AE4F3",
"j c #2BE5F3",
"k c #2BE6F4",
"l c #2CE7F4",
"z c #2CE7F5",
"x c #2CE8F5",
/* pixels */
"999%%   XX&& @@;;;==X@O;;7qq",
"999%%   @X&&XX+;;6==XXO;;5qq",
"@@<<;;;;1;;;;XXX+XXX+@@66eXX",
"##dapww<;;;;;;<1XX++@;;88p@X",
"##daaew<;1;5;;;=XX@++;;88aXO",
"ii76755tttzjjfd;<<11<77sa;&;",
"ii77555ttyjjzff;<<15<77sa;;;",
"$$;;1<<<17616uuxxxggtww<;;;;",
"$$;;;;;621615uuxgxggtww<;;;;",
";;eee;;o++;11tt;<<<<-;;1;;;;",
"aa5<;o@oX+X+X65e<<11+X+XX;15",
"pp<<6oooXX@oO15t111;XXX@X;51",
"77;XooooooooX@X5jzjg1X+@+Xtt",
"77;@@oooooooXXX6zzzg1++XX@tt",
";;;Oooooooooo@XX5;6;z1161#11",
";;;OoooooooooXXO;;;5j1171#;;",
";;<XX-;-;;;;;XXOXX5;;eezzd;;",
"aaw;<<;dfzetkzzXXOXXX6;;;;77",
"ade<;1;dfftekzzOXXXXX;;;;;77",
"975wwdd76666;;;z76755;;;;6ad",
"775wegd76666;;;j666;;;;;;1da",
"wwt55te7OOXX;;;;ddzzt65;1x61",
"wwr52ty6@+oo;;;;zdzke<<;1x11",
"575<15<<oooo ;;;;;;156662s11",
"+@@<;;;;o+ooooooXO5;tddgg1<<",
"+@+<;1;;ooooooooXX;;wddgg7;;",
"XOX@+oX;;;o+ooooXX:==&=>,3,:",
"@@XX+@X;=;+oooooXX=,3==>>3::"
};
