/* XPM */
static char *_a4e6dcba176496cb54596ccd2a117d9R9QXQsVD0x0nh6dG[] = {
/* columns rows colors chars-per-pixel */
"28 28 15 1 ",
"  c black",
". c #767676",
"X c #7C7C7C",
"o c #A81000",
"O c #AC7C00",
"+ c #F87858",
"@ c #F8B800",
"# c #F8D878",
"$ c #D8F878",
"% c gray51",
"& c #8B8B8B",
"* c gray58",
"= c #979797",
"- c #9F9F9F",
"; c #FCE0A8",
/* pixels */
"*&*****--***=&&------=&&&&&&",
"&XXXXXX%%&&&&&&&=*==&&X....&",
"*&&&&&&&&%X%%X%&&&&&%X=-----",
"*&&&&&&&&X%XX%X&&&&&X%=-----",
"*&&%-                  -&---",
"*&&& ;++++++++++++++++; ----",
"-*&& ;++++++++++++++++; &&&&",
"&&&& $oooooooooooooooo$ ***&",
"*&=* $oooooooooooooooo$ XXXX",
"&X%% $oooooooooooooooo$ %X%&",
"&%%X $oooooooooooooooo$ X%X&",
"&XX% $oooooooooooooooo$ %X%&",
"--== @@@@@@@@@@@@@@@@@@ ----",
"&*&& #######;########## &&&&",
"&*&& #oooooo#  #oooooo# &&&&",
"**== O#oooooooooooooo#O ...&",
"&&&& #ooooooo##ooooooo# ===-",
"&&&& #ooooooo##ooooooo# ===-",
"&&&& #ooooooo##ooooooo# ===-",
"-=-- #ooooooo##ooooooo# &&&&",
"&&X% ########OO######## ====",
"..XX                    &&&&",
"&&&&&&&%%X%X%XX&&&&&&X%X%X%&",
"&&&&&&&XX%X%X%%&&&&&&%X%X%X&",
"&&&&&&&X%X%X%X%&&&&&&X%X%X%&",
"&&&&&&&%X%X%X%X&&&&&&%X%X%X&",
"-=----&&&X%XX=--XXXX.X%-----",
"-=----&&&%X%%=--XXXX.XX-----"
};
